<?xml version="1.0" encoding="utf-8"?>
<!-- Generator: Adobe Illustrator 19.0.0, SVG Export Plug-In . SVG Version: 6.00 Build 0)  -->
<svg version="1.1" id="Layer_1" xmlns="http://www.w3.org/2000/svg" xmlns:xlink="http://www.w3.org/1999/xlink" x="0px" y="0px"
	 viewBox="0 0 97.5 97.5" style="enable-background:new 0 0 97.5 97.5;" xml:space="preserve">
<style type="text/css">
	.st0{fill:#A4DFEB;}
	.st1{fill:#4A2627;}
	.st2{fill:#A78675;}
	.st3{opacity:0.2;fill:#64616C;}
	.st4{opacity:0.1;fill:#E6E6E6;}
	.st5{fill:#F2F2F2;}
	.st6{fill:#FB050F;}
	.st7{opacity:0.5;fill:#FFFFFF;}
</style>
<g>
	<circle class="st0" cx="48.7" cy="48.7" r="48.7"/>
	<g>
		<g>
			<g>
				<g id="XMLID_45_">
					<path id="XMLID_50_" class="st1" d="M19.6,79.9c-0.2,0.2-0.5,0.5-0.9,0.5c0,0,0,0,0,0c0,0,0,0,0,0c0,0,0,0,0,0
						c-0.1,0-0.3,0.1-0.4,0.3l-0.4,0.6c-0.2,0.2-0.2,0.5,0,0.7l2.5,1.7l0.5-0.7l0.5-0.8l0.5-0.7l0,0C21.1,80.9,20.4,80.4,19.6,79.9z
						"/>
					<path id="XMLID_49_" class="st1" d="M72.8,21.6c0.2-0.4,0.5-0.9,0.8-1.6c1.5-3.4,0.6-7.6-3.2-10.2c-3.8-2.6-8.1-1.8-10.7,0.8
						c-0.5,0.5-0.9,0.9-1.2,1.3C40.9,31.6,33.8,58,19.6,79.9c0.7,0.5,1.5,1,2.2,1.5c0.7,0.5,1.5,1,2.2,1.5
						C39.1,61.7,61,45.3,72.8,21.6z"/>
					<path id="XMLID_48_" class="st2" d="M35,69.2c0.7-0.8,1.3-1.5,2-2.3l-7.4-5c-0.5,0.9-0.9,1.8-1.4,2.7L35,69.2z"/>
					<path id="XMLID_47_" class="st2" d="M26.8,67.5c-2.2,4.3-4.6,8.4-7.2,12.4l4.4,3c2.8-3.9,5.8-7.6,8.9-11.3L26.8,67.5z"/>
					<path id="XMLID_46_" class="st1" d="M24.1,82.9c-0.2,0.2-0.3,0.6-0.1,1.1c0,0,0,0,0,0c0,0,0,0,0,0c0,0,0,0,0,0
						c0,0.1,0,0.3-0.1,0.4l-0.4,0.6c-0.2,0.2-0.5,0.3-0.6,0.2l-2.5-1.7l0.5-0.7l0.5-0.8l0.5-0.7l0,0C22.6,81.9,23.3,82.4,24.1,82.9z
						"/>
				</g>
			</g>
			<g>
				<path class="st2" d="M52.2,42.3c0,0.3,0,0.6-0.2,0.9c-0.1,0.4-0.3,0.8-0.7,1.2c-0.3,0.5-0.7,0.9-1,1.3c-0.4,0.4-0.7,0.6-0.9,0.7
					c-0.2,0.1-0.4,0.1-0.5,0.1c-0.3-0.2-0.6-0.5-0.9-0.8c-0.3-0.3-0.4-0.5-0.3-0.7c0,0,0.2-0.2,0.7-0.5c0.4-0.3,0.7-0.6,0.9-0.8
					c0.2-0.2,0.2-0.4,0.2-0.5c0-0.1,0-0.2-0.1-0.2c-0.1-0.1-0.2-0.1-0.4,0c-0.2,0.1-0.3,0.2-0.5,0.3c-0.2,0.1-0.4,0.3-0.6,0.4
					c-0.2,0.1-0.5,0.3-0.7,0.4c-0.2,0.1-0.5,0.1-0.8,0.1c-0.3,0-0.6-0.1-0.9-0.3c-1.2-0.8-1.4-2-0.4-3.5c0.4-0.6,0.7-1,1.1-1.4
					c0.3-0.4,0.6-0.6,0.8-0.7c0.2-0.1,0.3-0.1,0.4-0.1c0.3,0.2,0.6,0.5,0.8,0.8c0.2,0.4,0.3,0.6,0.2,0.7c0,0-0.1,0.1-0.2,0.2
					c-0.4,0.3-0.7,0.5-0.9,0.8c-0.2,0.2-0.3,0.4-0.3,0.5c0,0.1,0,0.2,0.1,0.3c0.1,0.1,0.2,0.1,0.4,0c0.1-0.1,0.3-0.2,0.5-0.3
					c0.2-0.1,0.4-0.3,0.6-0.4c0.2-0.1,0.5-0.3,0.7-0.4c0.3-0.1,0.5-0.1,0.9-0.1c0.3,0,0.6,0.2,1,0.4c0.3,0.2,0.6,0.5,0.7,0.9
					C52.1,41.8,52.2,42,52.2,42.3z"/>
				<path class="st2" d="M54.7,38.8c0.1,0,0,0.3-0.2,0.6c-0.2,0.4-0.4,0.7-0.6,1.1c-0.2,0.3-0.4,0.5-0.5,0.6c-0.1,0.1-0.2,0.1-0.3,0
					l-5.4-3.6c-0.3-0.2,0.1-1.1,1.2-2.7c0.7-1,1.2-1.6,1.5-1.8c0.4-0.3,0.8-0.4,1.2-0.3c0.5,0.1,1,0.3,1.5,0.6
					c0.7,0.5,1.2,1,1.4,1.5c0.1,0.4,0.2,0.6,0.1,0.9c-0.1,0.2-0.1,0.4-0.2,0.6c-0.1,0.1-0.1,0.3-0.2,0.5c-0.1,0.3-0.4,0.6-0.6,1
					l-0.1,0.2L54.7,38.8z M52,37l0.1-0.2c0.1-0.1,0.1-0.2,0.1-0.3c0-0.1,0-0.2-0.1-0.3c-0.1-0.1-0.3-0.3-0.5-0.5
					c-0.2-0.2-0.5-0.3-0.6-0.3c-0.2,0-0.3,0-0.3,0c-0.1,0-0.1,0.1-0.2,0.2l-0.2,0.3L52,37z"/>
				<path class="st2" d="M59.4,32.6c-0.3,0.5-0.6,0.8-0.9,1.1c-0.3,0.3-0.7,0.5-1.1,0.6c-0.8,0.3-1.9,0-3.1-0.9
					c-0.5-0.4-0.9-0.7-1.2-1.2c-0.3-0.4-0.5-0.8-0.5-1.3c-0.1-0.8,0.2-1.7,0.7-2.5c0.3-0.4,0.6-0.8,0.9-1.1c0.3-0.3,0.7-0.5,1.1-0.6
					c0.8-0.3,1.8,0,3,0.8c1.1,0.7,1.7,1.5,1.8,2.4C60.2,30.8,60,31.7,59.4,32.6z M57.7,31.9c0.1,0,0.2-0.1,0.3-0.2
					c0.1-0.1,0.1-0.2,0.1-0.4c0-0.1-0.2-0.3-0.4-0.5c-0.2-0.2-0.6-0.5-1.1-0.8c-0.5-0.3-0.9-0.5-1.1-0.7c-0.3-0.1-0.5-0.2-0.6-0.2
					c-0.1,0-0.2,0.1-0.3,0.2c-0.1,0.1-0.1,0.2-0.1,0.4c0,0.1,0.2,0.3,0.4,0.5c0.2,0.2,0.6,0.5,1.1,0.8c0.5,0.3,0.9,0.5,1.2,0.7
					C57.4,31.9,57.6,31.9,57.7,31.9z"/>
				<path class="st2" d="M63,26.5c0.1,0,0,0.3-0.2,0.6c-0.2,0.4-0.4,0.7-0.6,1.1c-0.2,0.3-0.4,0.6-0.5,0.6c-0.1,0.1-0.2,0.1-0.3,0
					L56,25.2c-0.1-0.1-0.1-0.4,0.1-0.8c0.2-0.4,0.5-0.9,0.8-1.4c0.4-0.6,0.6-0.9,0.7-1.1c0.1-0.2,0.3-0.4,0.4-0.6
					c0.2-0.2,0.3-0.4,0.4-0.5c0.1-0.1,0.3-0.2,0.4-0.3c0.2-0.1,0.3-0.2,0.5-0.2c0.2,0,0.3,0,0.5,0c0.3,0,0.7,0.2,1.2,0.5
					c0.4,0.3,0.8,0.6,1,1c0.2,0.4,0.3,0.7,0.3,1.1c1.4,0,2.3,0.2,2.6,0.3c0.3,0.2,0,0.8-0.7,1.9c-0.2,0.3-0.4,0.5-0.5,0.6
					c-0.1,0.1-0.2,0.1-0.3,0.1l-2.1-0.6l-0.1,0.1L63,26.5z M60,24.5l0.1-0.2c0.2-0.3,0.1-0.7-0.4-1c-0.3-0.2-0.5-0.3-0.6-0.2
					c-0.2,0-0.3,0.1-0.4,0.2l-0.2,0.3L60,24.5z"/>
				<path class="st2" d="M67.7,20c-0.2,0.4-0.4,0.7-0.6,1.1c-0.2,0.3-0.4,0.6-0.5,0.6c-0.1,0.1-0.2,0.1-0.2,0l-3.6-2.4L62,20.4
					c0,0.1-0.2,0.1-0.3,0c-0.2-0.1-0.4-0.2-0.7-0.4c-0.3-0.2-0.6-0.4-0.8-0.7c-0.2-0.2-0.3-0.4-0.2-0.5l3.1-4.5
					c0.1-0.1,0.2-0.1,0.4,0c0.2,0.1,0.4,0.2,0.7,0.4c0.3,0.2,0.6,0.4,0.8,0.7c0.2,0.2,0.3,0.4,0.2,0.5l-0.7,1l3.6,2.4
					C68,19.4,67.9,19.6,67.7,20z"/>
			</g>
			<path class="st3" d="M72.8,21.6c0.2-0.4,0.5-0.9,0.8-1.6c1.5-3.4,0.6-7.6-3.2-10.2c-0.6-0.4-1.3-0.8-1.9-1
				c2.5,1.9,3.8,5.1,2.8,8.2c-4.1,12.2-11.9,21.7-20.3,31.1c-9.1,10.6-17.6,20.5-26.9,31c-1.1,1.4-3.6,3.3-4.6,1.6
				c-0.1-0.1-0.2-0.3-0.2-0.4c-0.1,0.1-0.3,0.1-0.5,0.1c0,0,0,0,0,0c0,0,0,0,0,0c0,0,0,0,0,0c-0.1,0-0.3,0.1-0.4,0.3l-0.4,0.6
				c-0.2,0.2-0.2,0.5,0,0.7l2.5,1.7l2.5,1.7c0.2,0.1,0.5,0,0.6-0.2l0.4-0.6c0.1-0.1,0.1-0.3,0.1-0.4c0,0,0,0,0,0c0,0,0,0,0,0
				c0,0,0,0,0,0c-0.2-0.4,0-0.9,0.1-1.1c0.3-0.4,0.6-0.9,0.9-1.3c0.1-0.1,0.2-0.2,0.2-0.3c0.3-0.4,0.6-0.8,0.9-1.3c0,0,0,0,0,0
				c0.3-0.4,0.7-0.9,1-1.3c0.1-0.1,0.1-0.1,0.2-0.2c1.8-2.3,3.7-4.6,5.6-6.9l0,0c0.7-0.8,1.4-1.6,2.1-2.4l0,0c0.7-0.8,1.3-1.5,2-2.3
				C49.9,52.5,64.1,39.1,72.8,21.6z"/>
			<ellipse transform="matrix(0.828 0.5608 -0.5608 0.828 21.4101 -29.0585)" class="st4" cx="58.1" cy="20.4" rx="4.3" ry="8.2"/>
		</g>
		<g>
			<circle class="st5" cx="48.7" cy="71" r="7.6"/>
			<path class="st3" d="M54.1,65.6c0.4,0.8,1.8,4.2,0.4,6.9c-1.7,3.2-5,4.3-8.3,3.2c-1.9-0.6-3.6-1.6-4.9-3.1
				c0.4,1.8,1.5,3.4,3.1,4.6c3.5,2.4,8.2,1.4,10.6-2C57.1,72.2,56.6,68.2,54.1,65.6z"/>
			<g>
				<path class="st6" d="M47.1,63.5c-0.1,0-0.3,0.1-0.4,0.1C46.9,63.6,47.1,63.6,47.1,63.5C47.2,63.6,47.2,63.6,47.1,63.5z"/>
				<path class="st6" d="M47.6,63.4c-0.1,0-0.2,0-0.3,0c0,0,0,0.1,0,0.1C47.4,63.6,47.5,63.5,47.6,63.4z"/>
				<path class="st6" d="M46.4,64c0,0.1,0.2,0.1,0.5,0.2c0.2,0,0.3,0.1,0.4,0.1c0-0.1,0-0.1,0-0.2c-0.1,0-0.2-0.1-0.4-0.1
					C46.6,64,46.4,64,46.4,64z"/>
				<path class="st6" d="M47.9,64.1c0.3-0.2,0.4-0.4,0.4-0.5c0-0.1-0.3,0-0.5,0.2c-0.1,0.1-0.2,0.2-0.3,0.2c0,0.1,0,0.1,0,0.2
					C47.6,64.3,47.7,64.2,47.9,64.1z"/>
				<path class="st6" d="M46.4,64.6c0,0,0,0.1,0.1,0.1c0.1,0.1,0.2,0.1,0.3,0.2c0.2,0.1,0.3,0.1,0.4,0.1c0-0.1,0-0.1,0-0.2
					c-0.1-0.1-0.2-0.1-0.3-0.2C46.7,64.6,46.5,64.6,46.4,64.6z"/>
				<path class="st6" d="M47.9,64.9c0.1-0.1,0.3-0.1,0.3-0.2c0.1-0.1,0.1-0.1,0.1-0.2c0-0.1-0.3,0-0.5,0.1c-0.1,0.1-0.2,0.1-0.3,0.2
					c0,0.1,0,0.1,0,0.2C47.6,65,47.8,65,47.9,64.9z"/>
				<path class="st6" d="M47,65.4c-0.3-0.1-0.5-0.2-0.5-0.1c0,0.1,0.2,0.2,0.4,0.3c0.2,0.1,0.3,0.2,0.4,0.2c0-0.1,0-0.1,0-0.2
					C47.2,65.5,47.1,65.5,47,65.4z"/>
				<path class="st6" d="M47.9,65.7c0.3-0.1,0.5-0.3,0.5-0.3c0-0.1-0.3,0-0.6,0.1c-0.1,0.1-0.3,0.1-0.3,0.2c0,0.1,0,0.1,0,0.2
					C47.5,65.8,47.7,65.8,47.9,65.7z"/>
				<path class="st6" d="M46.4,65.9c0,0.1,0.1,0.2,0.4,0.4c0.2,0.1,0.3,0.2,0.4,0.2c0-0.1,0-0.1,0-0.2c-0.1-0.1-0.2-0.2-0.3-0.2
					C46.6,65.9,46.4,65.8,46.4,65.9z"/>
				<path class="st6" d="M47.8,66.5c0.3-0.1,0.5-0.2,0.5-0.3c0-0.1-0.3-0.1-0.6,0c-0.1,0-0.3,0.1-0.4,0.1c0,0.1,0,0.1,0,0.2
					C47.4,66.5,47.6,66.5,47.8,66.5z"/>
				<path class="st6" d="M46.2,66.5c0,0,0.1,0.2,0.3,0.4c0.1,0.1,0.3,0.2,0.4,0.3c0-0.1,0-0.1,0.1-0.2c-0.1-0.1-0.2-0.2-0.3-0.3
					C46.5,66.6,46.3,66.5,46.2,66.5z"/>
				<path class="st6" d="M47.6,67.3c0.3,0,0.5-0.2,0.5-0.2c0-0.1-0.3-0.1-0.6,0c-0.1,0-0.3,0.1-0.4,0.1c0,0.1,0,0.1-0.1,0.2
					C47.2,67.3,47.4,67.3,47.6,67.3z"/>
				<path class="st6" d="M46,67.1c0,0,0.1,0.2,0.3,0.5c0.1,0.1,0.3,0.2,0.4,0.3c0-0.1,0-0.1,0.1-0.2c-0.1-0.1-0.1-0.2-0.2-0.3
					C46.3,67.2,46.1,67.1,46,67.1z"/>
				<path class="st6" d="M47.3,68c0.3,0,0.6-0.1,0.6-0.2c0-0.1-0.3-0.1-0.6-0.1c-0.1,0-0.3,0-0.4,0.1c0,0.1,0,0.1-0.1,0.2
					C46.9,68,47.1,68,47.3,68z"/>
				<path class="st6" d="M45.8,67.7c-0.1,0,0.1,0.2,0.3,0.5c0.1,0.1,0.2,0.3,0.3,0.3c0-0.1,0.1-0.1,0.1-0.2c0-0.1-0.1-0.2-0.2-0.3
					C46.1,67.8,45.8,67.7,45.8,67.7z"/>
				<path class="st6" d="M47,68.7c0.3,0,0.6-0.1,0.6-0.1c0-0.1-0.2-0.1-0.6-0.1c-0.1,0-0.3,0-0.4,0c0,0.1-0.1,0.1-0.1,0.2
					C46.6,68.7,46.8,68.7,47,68.7z"/>
				<path class="st6" d="M45.5,68.3c-0.1,0,0,0.3,0.2,0.5c0.1,0.2,0.2,0.3,0.3,0.3c0,0,0.1-0.1,0.1-0.1c0-0.1-0.1-0.2-0.2-0.3
					C45.7,68.4,45.5,68.3,45.5,68.3z"/>
				<path class="st6" d="M46.6,69.4c0.3,0,0.6,0,0.6-0.1c0-0.1-0.2-0.2-0.5-0.2c-0.1,0-0.3,0-0.4,0c0,0.1-0.1,0.1-0.1,0.2
					C46.2,69.3,46.4,69.3,46.6,69.4z"/>
				<path class="st6" d="M45.1,68.9c-0.1,0,0,0.3,0.2,0.5c0.1,0.2,0.2,0.3,0.3,0.4c0,0,0.1-0.1,0.1-0.1c0-0.1-0.1-0.2-0.2-0.3
					C45.4,69,45.2,68.8,45.1,68.9z"/>
				<path class="st6" d="M46.1,70c0.3,0.1,0.6,0,0.6,0c0-0.1-0.2-0.2-0.5-0.2c-0.1,0-0.3,0-0.4,0c0,0.1-0.1,0.1-0.1,0.1
					C45.8,69.9,45.9,70,46.1,70z"/>
				<path class="st6" d="M44.7,69.4c-0.1,0,0,0.3,0.1,0.5c0.1,0.2,0.2,0.3,0.2,0.4c0,0,0.1-0.1,0.1-0.1c0-0.1-0.1-0.2-0.1-0.4
					C45,69.5,44.8,69.4,44.7,69.4z"/>
				<path class="st6" d="M45.6,70.6c0.3,0.1,0.6,0.1,0.6,0c0-0.1-0.2-0.2-0.5-0.3c-0.1,0-0.3-0.1-0.4-0.1c0,0-0.1,0.1-0.1,0.1
					C45.3,70.5,45.5,70.6,45.6,70.6z"/>
				<path class="st6" d="M44.6,70.3c-0.1-0.3-0.3-0.5-0.3-0.5c-0.1,0,0,0.3,0.1,0.5c0.1,0.2,0.1,0.3,0.2,0.4c0,0,0.1-0.1,0.1-0.1
					C44.7,70.6,44.7,70.5,44.6,70.3z"/>
				<path class="st6" d="M45.1,71.2c0.3,0.1,0.5,0.1,0.6,0.1c0-0.1-0.2-0.2-0.5-0.3c-0.1-0.1-0.3-0.1-0.4-0.1c0,0-0.1,0.1-0.1,0.1
					C44.8,71,44.9,71.1,45.1,71.2z"/>
				<path class="st6" d="M44.1,70.8c-0.1-0.3-0.2-0.5-0.3-0.5c-0.1,0,0,0.3,0,0.5c0,0.2,0.1,0.3,0.2,0.4c0,0,0.1-0.1,0.1-0.1
					C44.2,71.1,44.1,70.9,44.1,70.8z"/>
				<path class="st6" d="M44.5,71.7c0.3,0.1,0.5,0.2,0.6,0.1c0-0.1-0.2-0.2-0.4-0.4c-0.1-0.1-0.3-0.1-0.4-0.1c0,0-0.1,0.1-0.1,0.1
					C44.2,71.5,44.3,71.6,44.5,71.7z"/>
				<path class="st6" d="M43.3,70.7c-0.1,0-0.1,0.2,0,0.5c0,0.2,0.1,0.3,0.1,0.4c0.1,0,0.1-0.1,0.2-0.1c0-0.1,0-0.2,0-0.4
					C43.5,70.9,43.4,70.7,43.3,70.7z"/>
				<path class="st6" d="M43.8,72.1c0.3,0.2,0.5,0.2,0.6,0.2c0-0.1-0.1-0.2-0.4-0.4c-0.1-0.1-0.2-0.1-0.3-0.2
					c-0.1,0-0.1,0.1-0.2,0.1C43.6,71.9,43.7,72,43.8,72.1z"/>
				<path class="st6" d="M42.8,71c-0.1,0-0.1,0.2-0.1,0.5c0,0.2,0,0.4,0.1,0.5c0.1,0,0.1-0.1,0.2-0.1c0-0.1,0-0.2,0-0.4
					C42.9,71.3,42.8,71,42.8,71z"/>
				<path class="st6" d="M43.1,72.5c0.2,0.2,0.5,0.3,0.5,0.2c0.1-0.1-0.1-0.3-0.4-0.4c-0.1-0.1-0.2-0.2-0.3-0.2
					c-0.1,0-0.1,0.1-0.2,0.1C42.9,72.3,43,72.4,43.1,72.5z"/>
				<path class="st6" d="M42.2,71.3c-0.1,0-0.1,0.2-0.1,0.5c0,0.2,0,0.3,0,0.5c0.1,0,0.1,0,0.2-0.1c0-0.1,0-0.2,0.1-0.4
					C42.3,71.5,42.3,71.3,42.2,71.3z"/>
				<path class="st6" d="M42.4,72.8c0.2,0.2,0.5,0.3,0.5,0.3c0.1-0.1-0.1-0.3-0.3-0.5c-0.1-0.1-0.2-0.2-0.3-0.2
					c-0.1,0-0.1,0-0.2,0.1C42.2,72.5,42.3,72.7,42.4,72.8z"/>
				<path class="st6" d="M41.6,71.5c0,0-0.1,0.1-0.1,0.1c0,0.1-0.1,0.2-0.1,0.4c0,0.2-0.1,0.4,0,0.5c0.1,0,0.1,0,0.2,0
					c0-0.1,0.1-0.2,0.1-0.4C41.7,71.8,41.7,71.5,41.6,71.5z"/>
				<path class="st6" d="M41.4,72.6c0,0.1,0.1,0.2,0.2,0.4c0.1,0.1,0.2,0.2,0.3,0.3c0.1,0.1,0.2,0.1,0.2,0.1
					c0.1-0.1-0.1-0.3-0.3-0.5c-0.1-0.1-0.2-0.2-0.3-0.3C41.5,72.6,41.5,72.6,41.4,72.6z"/>
				<path class="st6" d="M56.2,69.5c0-0.1,0-0.2-0.1-0.3C56.1,69.3,56.1,69.4,56.2,69.5C56.1,69.5,56.1,69.5,56.2,69.5z"/>
				<path class="st6" d="M56.2,70c0-0.1,0-0.3-0.1-0.4c0,0-0.1,0-0.1,0C56.1,69.8,56.2,69.9,56.2,70z"/>
				<path class="st6" d="M55.6,69.2c0.1-0.3,0.1-0.6,0-0.6c-0.1,0-0.2,0.2-0.3,0.5c0,0.2,0,0.4,0,0.5c0.1,0,0.1,0,0.2,0
					C55.6,69.5,55.6,69.4,55.6,69.2z"/>
				<path class="st6" d="M56,70.6c0,0,0-0.3-0.2-0.5c-0.1-0.1-0.2-0.2-0.2-0.3c-0.1,0-0.1,0-0.2,0c0,0.1,0.1,0.2,0.2,0.4
					C55.8,70.4,55.9,70.6,56,70.6z"/>
				<path class="st6" d="M54.9,69.4c0-0.3,0-0.6-0.1-0.6c0,0-0.1,0.1-0.1,0.2c0,0.1-0.1,0.2-0.1,0.4c0,0.2,0,0.4,0,0.5
					c0.1,0,0.1,0,0.2-0.1C54.8,69.7,54.9,69.6,54.9,69.4z"/>
				<path class="st6" d="M55.3,70.7c0.1,0.1,0.1,0.1,0.2,0.1c0,0-0.1-0.3-0.3-0.5C55,70.1,54.9,70,54.9,70c-0.1,0-0.1,0-0.2,0.1
					c0,0.1,0.2,0.2,0.3,0.4C55.1,70.5,55.2,70.6,55.3,70.7z"/>
				<path class="st6" d="M54.1,69.7c0-0.3-0.1-0.6-0.1-0.6c-0.1,0-0.2,0.3-0.1,0.6c0,0.2,0,0.4,0.1,0.4c0.1,0,0.1-0.1,0.2-0.1
					C54.1,70,54.1,69.9,54.1,69.7z"/>
				<path class="st6" d="M54.8,70.9c0-0.1-0.1-0.3-0.3-0.5c-0.1-0.1-0.2-0.2-0.3-0.2c-0.1,0-0.1,0.1-0.2,0.1
					c0.1,0.1,0.2,0.2,0.3,0.3C54.6,70.9,54.8,71,54.8,70.9z"/>
				<path class="st6" d="M53.5,70.1c0-0.3-0.1-0.5-0.2-0.5c-0.1,0-0.1,0.3-0.1,0.6c0,0.2,0.1,0.3,0.1,0.4c0.1,0,0.1-0.1,0.2-0.1
					C53.5,70.4,53.5,70.3,53.5,70.1z"/>
				<path class="st6" d="M54.3,71.2c0-0.1-0.1-0.2-0.4-0.4c-0.1-0.1-0.2-0.1-0.3-0.2c-0.1,0-0.1,0.1-0.2,0.1
					c0.1,0.1,0.2,0.2,0.3,0.3C54,71.2,54.2,71.3,54.3,71.2z"/>
				<path class="st6" d="M52.8,70.6c-0.1-0.3-0.2-0.5-0.2-0.5c-0.1,0-0.1,0.3,0,0.6c0,0.2,0.1,0.3,0.2,0.4c0,0,0.1-0.1,0.1-0.1
					C52.9,70.8,52.9,70.7,52.8,70.6z"/>
				<path class="st6" d="M53.2,71.4c0.3,0.1,0.5,0.2,0.5,0.2c0-0.1-0.1-0.2-0.4-0.4c-0.1-0.1-0.3-0.1-0.3-0.2c0,0-0.1,0.1-0.1,0.1
					C52.9,71.3,53.1,71.3,53.2,71.4z"/>
				<path class="st6" d="M52.2,71.1c-0.1-0.3-0.2-0.5-0.3-0.5c-0.1,0-0.1,0.3,0,0.6c0.1,0.2,0.1,0.3,0.2,0.4c0,0,0.1-0.1,0.1-0.1
					C52.3,71.3,52.3,71.2,52.2,71.1z"/>
				<path class="st6" d="M52.7,71.9c0.3,0.1,0.5,0.2,0.5,0.1c0-0.1-0.2-0.2-0.4-0.3c-0.1-0.1-0.3-0.1-0.4-0.1c0,0-0.1,0.1-0.1,0.1
					C52.4,71.7,52.5,71.8,52.7,71.9z"/>
				<path class="st6" d="M51.7,71.6c-0.1-0.3-0.3-0.5-0.3-0.5c-0.1,0,0,0.3,0.1,0.6c0.1,0.2,0.2,0.3,0.2,0.4c0,0,0.1-0.1,0.1-0.1
					C51.8,71.9,51.7,71.7,51.7,71.6z"/>
				<path class="st6" d="M52.8,72.5c0-0.1-0.2-0.2-0.5-0.3c-0.1,0-0.3-0.1-0.4-0.1c0,0-0.1,0.1-0.1,0.1c0.1,0.1,0.2,0.1,0.4,0.2
					C52.5,72.5,52.8,72.5,52.8,72.5z"/>
				<path class="st6" d="M51.2,72.2c-0.1-0.3-0.3-0.5-0.4-0.4c-0.1,0,0,0.3,0.1,0.6c0.1,0.2,0.2,0.3,0.3,0.4c0-0.1,0.1-0.1,0.1-0.2
					C51.3,72.5,51.3,72.3,51.2,72.2z"/>
				<path class="st6" d="M52.3,73c0-0.1-0.2-0.2-0.5-0.3c-0.1,0-0.3-0.1-0.4-0.1c0,0-0.1,0.1-0.1,0.1c0.1,0.1,0.3,0.1,0.4,0.1
					C52.1,73,52.3,73,52.3,73z"/>
				<path class="st6" d="M50.8,72.8c-0.2-0.3-0.3-0.4-0.4-0.4c-0.1,0,0,0.3,0.2,0.6c0.1,0.2,0.2,0.3,0.3,0.3c0-0.1,0.1-0.1,0.1-0.2
					C50.9,73.1,50.8,73,50.8,72.8z"/>
				<path class="st6" d="M52,73.5c0-0.1-0.2-0.2-0.5-0.2c-0.1,0-0.3,0-0.4,0c0,0.1-0.1,0.1-0.1,0.2c0.1,0,0.3,0.1,0.4,0.1
					C51.7,73.6,52,73.6,52,73.5z"/>
				<path class="st6" d="M50.4,73.5c-0.2-0.2-0.4-0.4-0.4-0.4c-0.1,0.1,0,0.3,0.2,0.5c0.1,0.1,0.2,0.3,0.3,0.3
					c0-0.1,0.1-0.1,0.1-0.2C50.5,73.7,50.5,73.6,50.4,73.5z"/>
				<path class="st6" d="M51.6,74.1c0-0.1-0.2-0.1-0.5-0.2c-0.1,0-0.3,0-0.4,0c0,0.1-0.1,0.1-0.1,0.2c0.1,0,0.3,0.1,0.5,0.1
					C51.4,74.2,51.6,74.1,51.6,74.1z"/>
				<path class="st6" d="M50,74.2c-0.2-0.2-0.4-0.4-0.5-0.3c-0.1,0.1,0.1,0.3,0.3,0.5c0.1,0.1,0.3,0.2,0.4,0.3c0-0.1,0-0.1,0.1-0.2
					C50.2,74.4,50.1,74.3,50,74.2z"/>
				<path class="st6" d="M51.3,74.6c0-0.1-0.2-0.1-0.5-0.1c-0.1,0-0.3,0-0.4,0c0,0.1,0,0.1-0.1,0.2c0.1,0,0.3,0,0.5,0
					C51.1,74.8,51.4,74.7,51.3,74.6z"/>
				<path class="st6" d="M49.8,74.9c-0.2-0.2-0.4-0.3-0.5-0.3c-0.1,0.1,0.1,0.3,0.3,0.5c0.1,0.1,0.3,0.2,0.4,0.2c0-0.1,0-0.1,0-0.2
					C50,75.1,49.9,75,49.8,74.9z"/>
				<path class="st6" d="M51.1,75.3c0-0.1-0.3-0.1-0.6-0.1c-0.1,0-0.3,0-0.4,0.1c0,0.1,0,0.1,0,0.2c0.1,0,0.3,0,0.5,0
					C50.9,75.4,51.1,75.3,51.1,75.3z"/>
				<path class="st6" d="M49.6,75.7c-0.2-0.2-0.5-0.3-0.5-0.2c-0.1,0.1,0.1,0.3,0.4,0.5c0.2,0.1,0.3,0.2,0.4,0.2c0-0.1,0-0.1,0-0.2
					C49.8,75.9,49.7,75.8,49.6,75.7z"/>
				<path class="st6" d="M50.4,76.1c0.3-0.1,0.5-0.2,0.5-0.2c0-0.1-0.3-0.1-0.6,0c-0.1,0-0.3,0.1-0.4,0.1c0,0.1,0,0.1,0,0.2
					C50.1,76.2,50.3,76.1,50.4,76.1z"/>
				<path class="st6" d="M49.5,76.5c-0.3-0.2-0.5-0.2-0.5-0.2c0,0.1,0.1,0.3,0.4,0.4c0.2,0.1,0.3,0.2,0.4,0.2c0-0.1,0-0.1,0-0.2
					C49.7,76.6,49.6,76.5,49.5,76.5z"/>
				<path class="st6" d="M50.4,76.8c0.3-0.1,0.5-0.2,0.5-0.3c0-0.1-0.3-0.1-0.6,0c-0.1,0-0.3,0.1-0.3,0.2c0,0.1,0,0.1,0,0.2
					C50,76.9,50.2,76.8,50.4,76.8z"/>
				<path class="st6" d="M49.4,77.2c-0.3-0.1-0.5-0.2-0.6-0.1c0,0.1,0.2,0.3,0.5,0.4c0.2,0.1,0.3,0.1,0.4,0.1c0-0.1,0-0.1,0-0.2
					C49.7,77.4,49.6,77.3,49.4,77.2z"/>
				<path class="st6" d="M50.8,77.1c0-0.1-0.3,0-0.6,0.1c-0.1,0.1-0.2,0.1-0.3,0.2c0,0.1,0,0.1,0,0.2c0.1,0,0.3-0.1,0.4-0.2
					C50.6,77.3,50.8,77.2,50.8,77.1z"/>
				<path class="st6" d="M49.8,78.2c-0.1,0-0.2-0.1-0.4-0.1c-0.3-0.1-0.5-0.1-0.6,0c0,0,0,0.1,0.1,0.2c0.1,0.1,0.2,0.1,0.4,0.2
					c0.2,0.1,0.3,0.1,0.5,0.1C49.9,78.3,49.8,78.2,49.8,78.2z"/>
				<path class="st6" d="M50.7,77.9c0.1-0.1,0.1-0.1,0.1-0.1c0,0-0.3,0-0.5,0.2c-0.1,0.1-0.2,0.2-0.3,0.2c0,0.1,0,0.1,0,0.2
					c0.1,0,0.3-0.1,0.4-0.2C50.6,78,50.7,77.9,50.7,77.9z"/>
				<path class="st6" d="M41.6,72.6c0.2,0,0.4-0.1,0.5-0.1c0.1,0,0.1,0,0.2-0.1c0.2-0.1,0.3-0.1,0.5-0.2c0.1,0,0.1-0.1,0.2-0.1
					c0.2-0.1,0.3-0.2,0.5-0.3c0.1,0,0.1-0.1,0.2-0.1c0.2-0.1,0.3-0.2,0.5-0.3c0,0,0.1-0.1,0.1-0.1c0.1-0.1,0.3-0.2,0.4-0.4
					c0,0,0.1-0.1,0.1-0.1c0.1-0.1,0.3-0.3,0.4-0.4c0,0,0.1-0.1,0.1-0.1c0.1-0.1,0.2-0.3,0.4-0.4c0,0,0.1-0.1,0.1-0.1
					c0.1-0.1,0.2-0.2,0.3-0.4c0,0,0-0.1,0.1-0.1c0-0.1,0.1-0.1,0.1-0.2c0.1-0.2,0.2-0.3,0.3-0.5c0-0.1,0.1-0.1,0.1-0.2
					c0.1-0.2,0.2-0.3,0.2-0.5c0-0.1,0-0.1,0.1-0.2c0.1-0.2,0.1-0.3,0.2-0.5c0-0.1,0-0.1,0.1-0.2c0.1-0.2,0.1-0.4,0.1-0.5
					c0-0.1,0-0.1,0-0.2c0-0.2,0.1-0.4,0.1-0.6c0-0.1,0-0.1,0-0.2c0-0.2,0-0.4,0-0.6c0-0.1,0-0.1,0-0.2c0-0.2,0-0.4,0-0.6
					c0-0.1,0-0.1,0-0.2c0-0.2-0.1-0.4-0.1-0.6c0,0,0-0.1,0-0.1c-0.1,0-0.1,0-0.2,0c0,0,0,0.1,0,0.1c0,0.2,0.1,0.4,0.1,0.5
					c0,0.1,0,0.1,0,0.2c0,0.2,0,0.4,0,0.5c0,0.1,0,0.1,0,0.2c0,0.2,0,0.4,0,0.5c0,0.1,0,0.1,0,0.2c0,0.2-0.1,0.4-0.1,0.5
					c0,0.1,0,0.1,0,0.2c0,0.2-0.1,0.4-0.1,0.5c0,0.1,0,0.1-0.1,0.2c-0.1,0.2-0.1,0.3-0.2,0.5c0,0.1,0,0.1-0.1,0.2
					c-0.1,0.2-0.2,0.3-0.2,0.5c0,0.1-0.1,0.1-0.1,0.2c-0.1,0.2-0.2,0.3-0.3,0.5c0,0.1-0.1,0.1-0.1,0.1c0,0,0,0.1-0.1,0.1
					c-0.1,0.1-0.2,0.2-0.3,0.4c0,0-0.1,0.1-0.1,0.1c-0.1,0.1-0.2,0.3-0.4,0.4c0,0-0.1,0.1-0.1,0.1c-0.1,0.1-0.3,0.3-0.4,0.4
					c0,0-0.1,0.1-0.1,0.1c-0.1,0.1-0.3,0.2-0.4,0.4c0,0-0.1,0.1-0.1,0.1c-0.1,0.1-0.3,0.2-0.5,0.3c-0.1,0-0.1,0.1-0.2,0.1
					c-0.2,0.1-0.3,0.2-0.5,0.3c-0.1,0-0.1,0.1-0.2,0.1c-0.2,0.1-0.3,0.1-0.5,0.2c-0.1,0-0.1,0-0.2,0.1c-0.2,0.1-0.4,0.1-0.5,0.1
					c-0.1,0-0.1,0-0.2,0c-0.1,0-0.1,0-0.2,0c0,0.1,0,0.1,0,0.2c0,0,0.1,0,0.1,0C41.5,72.6,41.5,72.6,41.6,72.6z"/>
				<path class="st6" d="M55.5,69.6c-0.1,0-0.1,0-0.2,0c-0.2,0-0.4,0.1-0.5,0.2c-0.1,0-0.1,0-0.2,0.1c-0.2,0.1-0.3,0.1-0.5,0.2
					c-0.1,0-0.1,0.1-0.2,0.1c-0.2,0.1-0.3,0.2-0.5,0.3c-0.1,0-0.1,0.1-0.2,0.1c-0.2,0.1-0.3,0.2-0.4,0.3c0,0-0.1,0.1-0.1,0.1
					c-0.1,0.1-0.3,0.2-0.4,0.4c0,0-0.1,0.1-0.1,0.1c-0.1,0.1-0.3,0.3-0.4,0.4c0,0-0.1,0.1-0.1,0.1c-0.1,0.1-0.2,0.3-0.3,0.4
					c0,0.1-0.1,0.1-0.1,0.2c0,0,0,0.1-0.1,0.1c-0.1,0.1-0.2,0.2-0.2,0.4c0,0.1-0.1,0.1-0.1,0.2c-0.1,0.2-0.2,0.3-0.3,0.5
					c0,0.1-0.1,0.1-0.1,0.2c-0.1,0.2-0.2,0.3-0.2,0.5c0,0.1,0,0.1-0.1,0.2c-0.1,0.2-0.1,0.4-0.2,0.5c0,0.1,0,0.1,0,0.2
					c0,0.2-0.1,0.4-0.1,0.5c0,0.1,0,0.1,0,0.2c0,0.2-0.1,0.4-0.1,0.6c0,0.1,0,0.1,0,0.2c0,0.2,0,0.4,0,0.6c0,0.1,0,0.1,0,0.2
					c0,0.2,0,0.4,0.1,0.6c0,0.1,0,0.1,0,0.2c0,0,0,0.1,0,0.1c0.1,0,0.1,0,0.2,0c0-0.1,0-0.1,0-0.2c0-0.1,0-0.1,0-0.2
					c0-0.2-0.1-0.4-0.1-0.5c0-0.1,0-0.1,0-0.2c0-0.2,0-0.4,0-0.5c0-0.1,0-0.1,0-0.2c0-0.2,0-0.4,0.1-0.5c0-0.1,0-0.1,0-0.2
					c0-0.2,0.1-0.4,0.1-0.5c0-0.1,0-0.1,0-0.2c0-0.2,0.1-0.3,0.2-0.5c0-0.1,0-0.1,0.1-0.2c0.1-0.2,0.1-0.3,0.2-0.5
					c0-0.1,0.1-0.1,0.1-0.2c0.1-0.2,0.2-0.3,0.3-0.5c0-0.1,0.1-0.1,0.1-0.2c0.1-0.1,0.2-0.2,0.2-0.4c0,0,0-0.1,0.1-0.1
					c0,0,0.1-0.1,0.1-0.1c0.1-0.2,0.2-0.3,0.3-0.4c0,0,0.1-0.1,0.1-0.1c0.1-0.1,0.2-0.3,0.4-0.4c0,0,0.1-0.1,0.1-0.1
					c0.1-0.1,0.3-0.3,0.4-0.4c0,0,0.1-0.1,0.1-0.1c0.1-0.1,0.3-0.2,0.4-0.3c0,0,0.1-0.1,0.2-0.1c0.2-0.1,0.3-0.2,0.5-0.3
					c0.1,0,0.1-0.1,0.2-0.1c0.2-0.1,0.3-0.2,0.5-0.2c0.1,0,0.1,0,0.2-0.1c0.2-0.1,0.3-0.1,0.5-0.2c0.1,0,0.1,0,0.2,0
					c0.2,0,0.4-0.1,0.5-0.1c0,0,0.1,0,0.1,0c0-0.1,0-0.1,0-0.2c0,0-0.1,0-0.1,0C55.9,69.5,55.7,69.6,55.5,69.6z"/>
			</g>
			
				<ellipse transform="matrix(0.9791 -0.2036 0.2036 0.9791 -12.5709 10.9183)" class="st7" cx="46.8" cy="66.6" rx="2.6" ry="2.2"/>
		</g>
	</g>
</g>
</svg>
