<?xml version="1.0" encoding="utf-8"?>
<!-- Generator: Adobe Illustrator 19.0.0, SVG Export Plug-In . SVG Version: 6.00 Build 0)  -->
<svg version="1.1" id="Layer_1" xmlns="http://www.w3.org/2000/svg" xmlns:xlink="http://www.w3.org/1999/xlink" x="0px" y="0px"
	 viewBox="0 0 97.5 97.5" style="enable-background:new 0 0 97.5 97.5;" xml:space="preserve">
<style type="text/css">
	.st0{fill:#FDB813;}
	.st1{fill:#8B2614;}
	.st2{fill:#4A2627;}
	.st3{fill:#FAFBFD;}
	.st4{opacity:0.2;fill:#64616C;}
	.st5{opacity:0.2;fill:#FAFBFD;}
</style>
<g>
	<circle class="st0" cx="48.7" cy="48.7" r="48.7"/>
	<g>
		<path class="st1" d="M69.7,13.1c-0.2-0.2-0.4-0.3-0.5-0.4c-0.2-0.1-0.4-0.2-0.6-0.2h0c-5.8-1.8-31.4,4.4-42.3,23.6
			c-10.9,19.2-3,44.3,1.5,48.4v0c0.2,0.2,0.4,0.3,0.5,0.4c0.2,0.1,0.4,0.2,0.6,0.2c5.8,1.8,31.4-4.4,42.3-23.6S74.2,17.1,69.7,13.1z
			"/>
		<path class="st2" d="M69.2,12.7c-0.1-0.1-0.3-0.1-0.4-0.1l-40.8,72c0.1,0.1,0.2,0.2,0.3,0.3c0.1,0.1,0.3,0.1,0.4,0.1l40.8-72
			C69.4,12.8,69.3,12.7,69.2,12.7z"/>
		<g>
			<g>
				<g>
					<path class="st2" d="M39.1,53.2L38.6,53c1-1.8,1.2-2.9,1.4-4.1c0.2-1.2,0.3-2.4,1.4-4.3c1.1-1.9,2-2.7,2.9-3.4
						c0.9-0.7,1.8-1.4,2.8-3.3c1-1.8,1.2-2.9,1.4-4.1c0.2-1.2,0.3-2.4,1.4-4.3c1.1-2,4-4.1,5.3-4.4c0.3-0.1,0.5,0,0.7,0.1
						c0.6,0.4,0.7,1.8,0.9,3.7c0.1,1.1,0.2,2.3,0.4,3.5l-0.5,0.1c-0.2-1.2-0.3-2.5-0.4-3.5c-0.1-1.5-0.3-3-0.7-3.3
						c0,0-0.1-0.1-0.3,0c-1.2,0.3-4,2.3-5,4.1c-1,1.8-1.2,2.9-1.4,4.1c-0.2,1.2-0.3,2.4-1.4,4.3c-1.1,1.9-2,2.7-2.9,3.4
						c-0.9,0.7-1.8,1.4-2.8,3.3c-1,1.8-1.2,2.9-1.4,4.1C40.4,50.1,40.2,51.3,39.1,53.2z"/>
					<path class="st2" d="M32.8,67.2c-0.2,0-0.3,0-0.4-0.1c-0.2-0.1-0.4-0.3-0.5-0.6c-0.4-1.3-0.1-4.8,1-6.8c1.1-1.9,2-2.7,2.9-3.4
						c0.9-0.7,1.8-1.4,2.8-3.3c1-1.8,1.2-2.9,1.4-4.1c0.2-1.2,0.3-2.4,1.4-4.3c1.1-1.9,2-2.7,2.9-3.4c0.9-0.7,1.8-1.4,2.8-3.3
						l0.5,0.3c-1.1,1.9-2,2.7-2.9,3.4c-0.9,0.7-1.8,1.4-2.8,3.3c-1,1.8-1.2,2.9-1.4,4.1c-0.2,1.2-0.3,2.4-1.4,4.3
						c-1.1,1.9-2,2.7-2.9,3.4c-0.9,0.7-1.8,1.4-2.8,3.3c-1,1.8-1.3,5.2-1,6.4c0,0.1,0.1,0.2,0.2,0.2c0.5,0.2,1.8-0.4,3.1-1.1
						c1-0.5,2.1-1,3.3-1.4l0.2,0.5c-1.2,0.4-2.2,1-3.2,1.4C34.5,66.7,33.5,67.2,32.8,67.2z"/>
				</g>
				<g>
					<path class="st2" d="M41.9,72.4c-0.2,0-0.3,0-0.5-0.1c-0.6-0.4-0.7-1.8-0.9-3.7c-0.1-1.1-0.2-2.3-0.4-3.5l0.5-0.1
						c0.2,1.2,0.3,2.5,0.4,3.5c0.1,1.5,0.3,3,0.7,3.3c0,0,0.1,0.1,0.3,0c1.2-0.3,4-2.3,5-4.1c1-1.8,1.2-2.9,1.4-4.1
						c0.2-1.2,0.3-2.4,1.4-4.3c1.1-1.9,2-2.7,2.9-3.4c0.9-0.7,1.8-1.4,2.8-3.3c1-1.8,1.2-2.9,1.4-4.1c0.2-1.2,0.3-2.4,1.4-4.3
						l0.5,0.3c-1,1.8-1.2,2.9-1.4,4.1c-0.2,1.2-0.3,2.4-1.4,4.3c-1.1,1.9-2,2.7-2.9,3.4c-0.9,0.7-1.8,1.4-2.8,3.3
						c-1,1.8-1.2,2.9-1.4,4.1c-0.2,1.2-0.3,2.4-1.4,4.3c-1.1,2-4,4.1-5.3,4.4C42,72.4,42,72.4,41.9,72.4z"/>
					<path class="st2" d="M50.3,59.6l-0.5-0.3c1.1-1.9,2-2.7,2.9-3.4c0.9-0.7,1.8-1.4,2.8-3.3c1-1.8,1.2-2.9,1.4-4.1
						c0.2-1.2,0.3-2.4,1.4-4.3c1.1-1.9,2-2.7,2.9-3.4c0.9-0.7,1.8-1.4,2.8-3.3c1-1.8,1.3-5.2,1-6.4c0-0.1-0.1-0.2-0.2-0.2
						c-0.5-0.2-1.8,0.4-3.1,1.1c-1,0.5-2.1,1-3.3,1.4l-0.2-0.5c1.2-0.4,2.2-1,3.2-1.4c1.7-0.8,2.9-1.4,3.6-1.1
						c0.2,0.1,0.4,0.3,0.5,0.6c0.4,1.3,0.1,4.8-1,6.8c-1.1,1.9-2,2.7-2.9,3.4c-0.9,0.7-1.8,1.4-2.8,3.3c-1,1.8-1.2,2.9-1.4,4.1
						c-0.2,1.2-0.3,2.4-1.4,4.3c-1.1,1.9-2,2.7-2.9,3.4C52.2,57,51.3,57.7,50.3,59.6z"/>
				</g>
			</g>
			<path class="st3" d="M41.4,66.2c-0.5,0.8-1.5,1.1-2.4,0.7l-1-0.5c-0.8-0.5-1.1-1.5-0.7-2.4L56,31.2c0.5-0.8,1.5-1.1,2.4-0.7
				l1,0.5c0.8,0.5,1.1,1.5,0.7,2.4L41.4,66.2z"/>
			<g>
				<g>
					<path class="st3" d="M61.7,35.8c-0.2,0.4-0.7,0.5-1,0.3l-7.4-4.2c-0.4-0.2-0.5-0.7-0.3-1l0.1-0.1c0.2-0.4,0.7-0.5,1-0.3
						l7.4,4.2c0.4,0.2,0.5,0.7,0.3,1L61.7,35.8z"/>
				</g>
				<g>
					<path class="st3" d="M59.2,40.2c-0.2,0.4-0.7,0.5-1,0.3l-7.4-4.2c-0.4-0.2-0.5-0.7-0.3-1l0.1-0.1c0.2-0.4,0.7-0.5,1-0.3
						l7.4,4.2c0.4,0.2,0.5,0.7,0.3,1L59.2,40.2z"/>
				</g>
				<g>
					<path class="st3" d="M46.5,62.6c-0.2,0.4-0.7,0.5-1,0.3l-7.4-4.2c-0.4-0.2-0.5-0.7-0.3-1l0.1-0.1c0.2-0.4,0.7-0.5,1-0.3
						l7.4,4.2c0.4,0.2,0.5,0.7,0.3,1L46.5,62.6z"/>
				</g>
				<g>
					<path class="st3" d="M44,67c-0.2,0.4-0.7,0.5-1,0.3l-7.4-4.2c-0.4-0.2-0.5-0.7-0.3-1l0.1-0.1c0.2-0.4,0.7-0.5,1-0.3l7.4,4.2
						c0.4,0.2,0.5,0.7,0.3,1L44,67z"/>
				</g>
				<g>
					<path class="st3" d="M51.6,53.6c-0.2,0.4-0.7,0.5-1,0.3l-7.4-4.2c-0.4-0.2-0.5-0.7-0.3-1l0.1-0.1c0.2-0.4,0.7-0.5,1-0.3
						l7.4,4.2c0.4,0.2,0.5,0.7,0.3,1L51.6,53.6z"/>
				</g>
				<g>
					<path class="st3" d="M49,58.1c-0.2,0.4-0.7,0.5-1,0.3l-7.4-4.2c-0.4-0.2-0.5-0.7-0.3-1l0.1-0.1c0.2-0.4,0.7-0.5,1-0.3l7.4,4.2
						c0.4,0.2,0.5,0.7,0.3,1L49,58.1z"/>
				</g>
				<g>
					<path class="st3" d="M56.6,44.7c-0.2,0.4-0.7,0.5-1,0.3l-7.4-4.2c-0.4-0.2-0.5-0.7-0.3-1l0.1-0.1c0.2-0.4,0.7-0.5,1-0.3
						l7.4,4.2c0.4,0.2,0.5,0.7,0.3,1L56.6,44.7z"/>
				</g>
				<g>
					<path class="st3" d="M54.1,49.2c-0.2,0.4-0.7,0.5-1,0.3l-7.4-4.2c-0.4-0.2-0.5-0.7-0.3-1l0.1-0.1c0.2-0.4,0.7-0.5,1-0.3
						l7.4,4.2c0.4,0.2,0.5,0.7,0.3,1L54.1,49.2z"/>
				</g>
			</g>
		</g>
		<path class="st3" d="M76.2,31.8c-0.5-3.9-1.3-7.5-2.3-10.5c-4.7-3.2-9.6-6-14.7-8.3c-3.1,0.7-6.6,1.8-10.2,3.5
			C59,19.9,68.1,25,76.2,31.8z"/>
		<path class="st3" d="M48.3,81c-10-3.5-19-8.7-27.1-15.5c0.5,3.9,1.3,7.5,2.3,10.5c4.6,3.2,9.5,6,14.7,8.4
			C41.2,83.7,44.7,82.6,48.3,81z"/>
		<path class="st4" d="M72,16.3c0.4,1.6,0.7,3.2,0.5,4.7c-2,12.9-6.7,25-15.1,35.3c-5.4,6.5-11.6,11.8-19.6,15.3
			c-4.8,2.1-9.7,2.9-14.6,3.2c1.4,4.7,3.2,8.2,4.6,9.5v0c0.2,0.2,0.4,0.3,0.5,0.4c0.2,0.1,0.4,0.2,0.6,0.2
			c5.8,1.8,31.4-4.4,42.3-23.6C80.4,45.3,76.2,24.7,72,16.3z"/>
		
			<ellipse transform="matrix(0.7837 0.6212 -0.6212 0.7837 27.5808 -18.4622)" class="st5" cx="40.3" cy="30.4" rx="4.6" ry="10.5"/>
	</g>
</g>
</svg>
