<?xml version="1.0" encoding="utf-8"?>
<!-- Generator: Adobe Illustrator 19.0.0, SVG Export Plug-In . SVG Version: 6.00 Build 0)  -->
<svg version="1.1" id="Layer_1" xmlns="http://www.w3.org/2000/svg" xmlns:xlink="http://www.w3.org/1999/xlink" x="0px" y="0px"
	 viewBox="0 0 97.5 97.5" style="enable-background:new 0 0 97.5 97.5;" xml:space="preserve">
<style type="text/css">
	.st0{fill:#FDB813;}
	.st1{clip-path:url(#SVGID_2_);}
	.st2{fill:#22313F;}
	.st3{fill:#E3E3E3;}
	.st4{opacity:0.2;fill:#F9F9F9;}
</style>
<g>
	<circle class="st0" cx="48.7" cy="48.7" r="48.7"/>
	<g>
		<g>
			<defs>
				<circle id="SVGID_1_" cx="48.7" cy="48.7" r="32.5"/>
			</defs>
			<clipPath id="SVGID_2_">
				<use xlink:href="#SVGID_1_"  style="overflow:visible;"/>
			</clipPath>
			<g class="st1">
				<g>
					<g>
						<g>
							<path class="st2" d="M13.7,53.2c-0.4-3.3-0.6-6.6-0.7-10c1.1-3.2,2.4-6.3,3.7-9.3c2.6-0.4,5.1-0.6,7.7-0.6
								c1,4.1,2.2,8.1,3.4,12.2c-2.4,3.5-4.7,7-6.9,10.6C18.4,55.2,16,54.3,13.7,53.2z"/>
							<path class="st2" d="M21.1,56.7l-0.4-0.1c-2.8-1-5.1-1.9-7.2-2.9l-0.3-0.1l0-0.3c-0.4-3.2-0.6-6.6-0.7-10l0-0.1l0-0.1
								c1.2-3.2,2.4-6.4,3.7-9.4l0.1-0.3l0.3,0c2.3-0.4,4.7-0.6,7.7-0.6l0.4,0l0.1,0.4c0.9,3.8,2,7.8,3.4,12.1l0.1,0.3l-0.2,0.2
								c-2.6,3.8-4.9,7.2-6.9,10.6L21.1,56.7z M14.2,52.8c1.8,0.9,3.9,1.7,6.4,2.5c2-3.2,4.1-6.5,6.6-10c-1.3-4.1-2.3-7.9-3.2-11.5
								c-2.6,0.1-4.8,0.3-6.8,0.6c-1.3,2.9-2.4,5.8-3.5,8.9C13.7,46.5,13.9,49.7,14.2,52.8z"/>
						</g>
						<g>
							<path class="st2" d="M32.8,23.2c-0.8-2.3-1.6-4.7-2.3-7c2.3-2,4.9-3.6,7.8-4.7c3.4,0.3,6.7,0.8,10.1,1.3
								c1.8,1.6,3.4,3.3,4.9,5.2c-2.6,2-5.1,4-7.5,6.2C41.4,23.6,37.1,23.2,32.8,23.2z"/>
							<path class="st2" d="M45.9,24.8l-0.2,0c-3.9-0.5-8-1-12-1c-0.3,0-0.6,0-0.8,0l-0.4,0l-0.1-0.4c-0.9-2.5-1.6-4.8-2.3-7.1
								L29.8,16l0.3-0.2c2.5-2.1,5.1-3.7,7.9-4.8l0.1,0l0.1,0c3.3,0.3,6.7,0.8,10.1,1.3l0.2,0l0.1,0.1c1.6,1.5,3.2,3.1,5,5.2
								l0.4,0.4l-0.5,0.4c-2.4,1.9-4.9,3.9-7.5,6.2L45.9,24.8z M33.6,22.7c4.1,0,8.1,0.5,11.9,0.9c2.4-2.1,4.6-4,6.9-5.7
								c-1.5-1.8-2.9-3.2-4.4-4.6c-3.4-0.5-6.5-0.9-9.8-1.3c-2.5,1-4.9,2.4-7.2,4.3c0.6,2,1.3,4.1,2,6.3
								C33.3,22.7,33.5,22.7,33.6,22.7z"/>
						</g>
						<g>
							<path class="st2" d="M13.5,29.1c0.4-1.5,0.7-3,1-4.5c0.5-2.7,1.4-5.2,2.6-7.7c1.5-1.2,3.1-2.1,4.9-2.9c0,1.4,0,2.7,0,4.1
								c-2.2,2.5-4.2,5.2-5.9,8.1C15,27,13.9,27.8,13.5,29.1z"/>
							<path class="st2" d="M14.1,29.3L13,29c0.3-1.3,0.7-2.9,1-4.5c0.5-2.6,1.4-5.1,2.6-7.8l0.1-0.1l0.1-0.1c1.5-1.1,3-2,5-2.9
								l0.8-0.4l0,0.9c0,1.3,0,2.7,0,4.1l0,0.2l-0.1,0.2c-2.2,2.5-4.2,5.1-5.9,8l-0.1,0.1l-0.1,0.1C15.1,27.5,14.4,28.3,14.1,29.3z
								 M17.6,17.3c-1.2,2.5-2,4.9-2.5,7.4c-0.1,0.6-0.3,1.2-0.4,1.8c0.3-0.3,0.7-0.5,1-0.7c1.7-2.8,3.6-5.4,5.8-7.9c0-1,0-2,0-3
								C20,15.7,18.7,16.5,17.6,17.3z"/>
						</g>
						<g>
							<path class="st2" d="M70.3,30.2c-1.7-3.4-3.5-6.7-5.7-9.8c1.1-1.2,2.2-2.4,3.3-3.6c2.5,1.2,4.9,2.4,7.3,3.9
								c1.7,2.6,3.1,5.3,4.2,8.2c-0.5,1.8-1,3.6-1.5,5.3C75.5,32.6,72.9,31.4,70.3,30.2z"/>
							<path class="st2" d="M78.1,35.2l-0.6-0.5c-2.3-1.7-4.9-2.9-7.4-4l-0.2-0.1l-0.1-0.2c-1.9-3.8-3.6-6.9-5.6-9.7l-0.3-0.4
								l0.3-0.3c1-1.2,2.2-2.4,3.3-3.6l0.3-0.3l0.4,0.2c2.7,1.2,5.1,2.5,7.3,3.9l0.1,0.1l0.1,0.1c1.7,2.5,3.1,5.3,4.2,8.3l0.1,0.2
								l0,0.2c-0.4,1.7-0.9,3.5-1.5,5.4L78.1,35.2z M70.7,29.8c2.2,1,4.6,2.1,6.8,3.6c0.5-1.5,0.9-3,1.2-4.4c-1.1-2.9-2.4-5.4-4-7.9
								c-2.1-1.3-4.3-2.5-6.8-3.6c-0.9,1-1.8,2-2.7,3C67.3,23.2,69,26.1,70.7,29.8z"/>
						</g>
						<g>
							<path class="st2" d="M57.4,85.2c-0.7-1.5-1.4-3-2-4.5c3.1-2.3,5.8-4.9,8.4-7.7c2.8-0.3,5.6-0.7,8.3-1.6c0,1.9,0,3.7-0.1,5.6
								c-1.9,2.5-4,4.7-6.4,6.7C62.9,84.3,60.2,84.8,57.4,85.2z"/>
							<path class="st2" d="M57.1,85.8l-0.2-0.4c-0.7-1.4-1.3-2.8-2-4.5l-0.2-0.4l0.3-0.3c2.8-2.1,5.5-4.6,8.3-7.7l0.1-0.2l0.2,0
								c2.7-0.3,5.5-0.6,8.2-1.5l0.7-0.2l0,0.8c0,1.8,0,3.7-0.1,5.6l0,0.2l-0.1,0.1c-2,2.6-4.1,4.8-6.5,6.8l-0.1,0.1l-0.1,0
								c-2.6,0.7-5.2,1.2-8.2,1.6L57.1,85.8z M56.1,80.8c0.6,1.4,1.1,2.6,1.7,3.7c2.7-0.4,5.2-0.8,7.5-1.4c2.2-1.8,4.2-3.9,6.1-6.4
								c0.1-1.6,0.1-3.1,0.1-4.7c-2.5,0.7-5.1,1.1-7.5,1.3C61.4,76.4,58.7,78.8,56.1,80.8z"/>
						</g>
						<g>
							<path class="st2" d="M47.2,61.5c-1.9-4.6-3.7-9.3-5.5-14c3.1-3.9,6.3-7.8,9.4-11.6c4.6,0.8,9.1,1.7,13.6,2.8
								c1.5,4.3,2.9,8.6,3.9,13c-2.3,3.9-4.9,7.6-7.6,11.2C56.4,62.6,51.8,62.1,47.2,61.5z"/>
							<path class="st2" d="M61.3,63.5l-0.3,0c-4.2-0.3-8.8-0.7-13.8-1.4l-0.3,0l-0.1-0.3c-1.8-4.5-3.7-9.2-5.5-14l-0.1-0.3l0.2-0.3
								c3.2-4,6.4-7.9,9.4-11.6l0.2-0.3l0.3,0.1c5,0.9,9.5,1.8,13.6,2.9l0.3,0.1l0.1,0.3c1.6,4.4,2.9,8.7,4,13l0.1,0.2l-0.1,0.2
								c-2.3,3.8-4.8,7.5-7.7,11.2L61.3,63.5z M47.6,61c4.8,0.6,9.1,1.1,13.2,1.3c2.7-3.6,5.1-7.1,7.3-10.7c-1-4.1-2.2-8.2-3.8-12.4
								c-3.9-1-8.2-1.9-12.9-2.7c-2.9,3.6-6,7.3-9,11.1C44.1,52.2,45.9,56.7,47.6,61z"/>
						</g>
						<g>
							<path class="st2" d="M76.5,62c-0.1-3-0.4-6-0.6-9.1c1.2-2.8,2.3-5.6,3.3-8.4c0.5,0.5,1.3,1,1.5,2c-0.3,2.3-0.8,4.7-1.3,7
								c-0.2,2.4-0.5,4.7-0.8,7C78.1,61.5,77.1,61.7,76.5,62z"/>
							<path class="st2" d="M76,62.8l0-0.8c-0.1-3-0.4-6-0.6-9l0-0.1l0.1-0.1c1.2-2.8,2.3-5.6,3.3-8.4l0.3-0.8l0.6,0.5
								c0.1,0.1,0.1,0.1,0.2,0.2c0.6,0.5,1.3,1.1,1.4,2.2l0,0.1l0,0.1c-0.4,2.5-0.8,4.8-1.3,7c-0.2,2.2-0.4,4.5-0.8,7l0,0.1l0,0.1
								c-0.5,1-1.4,1.4-2,1.6c-0.1,0-0.2,0.1-0.3,0.1L76,62.8z M76.4,53c0.3,2.7,0.5,5.5,0.6,8.2c0.4-0.2,0.7-0.4,0.9-0.8
								c0.4-2.4,0.7-4.7,0.8-6.9l0-0.1c0.5-2.1,0.9-4.4,1.3-6.8c-0.1-0.5-0.3-0.8-0.7-1.1C78.5,48,77.5,50.5,76.4,53z"/>
						</g>
						<g>
							<path class="st2" d="M27.4,81.3c-2.4-2-4.3-4.3-6-6.9c1.4-2.1,2.9-4.1,4.4-6.1c4.1,1.4,8.4,2.2,12.7,3
								c1.7,2.8,3.4,5.6,5.3,8.3c-2,1.3-4.1,2.5-6.3,3.5C34.1,82.5,30.7,82,27.4,81.3z"/>
							<path class="st2" d="M37.5,83.7l-0.4-0.1c-3.2-0.5-6.6-1.1-9.9-1.8l-0.1,0L27,81.7c-2.2-1.8-4.2-4-6.1-7l-0.2-0.3l0.2-0.3
								c1.3-1.9,2.7-3.9,4.4-6.1l0.2-0.3l0.4,0.1c4.2,1.4,8.5,2.2,12.6,3l0.3,0l0.1,0.2c1.6,2.8,3.4,5.6,5.3,8.3l0.3,0.5L44,80
								c-2.3,1.5-4.3,2.6-6.3,3.6L37.5,83.7z M27.6,80.7c3.2,0.7,6.5,1.2,9.7,1.8l0,0c1.8-0.8,3.6-1.9,5.6-3.1
								c-1.7-2.5-3.4-5.1-4.9-7.6C34.1,71,30,70.2,26,68.9c-1.5,2-2.7,3.8-3.9,5.5C23.9,77.1,25.6,79.1,27.6,80.7z"/>
						</g>
						<g>
							<path class="st2" d="M9,69.6c-0.4-2.7-0.4-5.4-0.1-8.1C9,60,9.1,58.4,9.2,56.9c0,1.3,0.7,2.5,1.6,3.4
								c0.7,3.3,1.8,6.4,3.2,9.5c-0.4,1.3-0.8,2.6-1.2,4C11.3,72.5,10.1,71.2,9,69.6z"/>
							<path class="st2" d="M13,74.8l-0.7-0.6c-1.6-1.5-2.8-2.8-3.9-4.3l-0.1-0.1l0-0.1C8,66.8,8,64.1,8.3,61.4
								c0.1-1.1,0.2-2.2,0.3-3.3c0-0.4,0.1-0.9,0.1-1.3l1.1,0c0,1,0.5,2,1.4,3.1l0.1,0.1l0,0.1c0.6,3,1.7,6.1,3.1,9.4l0.1,0.2
								L14.5,70c-0.4,1.3-0.9,2.6-1.2,3.9L13,74.8z M9.5,69.4c0.8,1.2,1.7,2.3,3,3.4c0.3-1,0.6-1.9,0.9-2.9
								c-1.4-3.3-2.4-6.3-3.1-9.3c-0.2-0.3-0.5-0.6-0.7-1c-0.1,0.6-0.1,1.3-0.2,1.9l0,0C9.1,64.1,9.1,66.6,9.5,69.4z"/>
						</g>
						<g>
							<path class="st3" d="M14,70c-1.4-3.1-2.5-6.2-3.2-9.5c0.9-2.4,1.8-4.8,2.9-7.1c2.3,1.1,4.7,2,7.1,2.9c1.3,4.2,3,8.2,4.9,12.2
								c-1.5,2-2.9,4-4.3,6.1C18.8,73.1,16.4,71.7,14,70z"/>
							<path class="st2" d="M21.6,75.2L21.2,75c-2.9-1.5-5.3-2.9-7.5-4.5l-0.1-0.1l-0.1-0.1c-1.4-3.3-2.5-6.4-3.2-9.6l0-0.2l0.1-0.2
								c1-2.6,1.9-5,2.9-7.1l0.2-0.5l0.5,0.3c2,1,4.2,1.9,7.1,2.8l0.3,0.1l0.1,0.3c1.3,4.4,3.2,8.6,4.9,12.1l0.1,0.3l-0.2,0.3
								c-1.6,2.2-3,4.2-4.3,6L21.6,75.2z M14.5,69.6c2,1.4,4.2,2.8,6.8,4.1c1.2-1.7,2.4-3.5,3.9-5.4c-1.6-3.4-3.5-7.4-4.7-11.7
								c-2.5-0.9-4.5-1.7-6.4-2.6c-0.9,2-1.7,4.1-2.6,6.4C12.1,63.6,13.1,66.6,14.5,69.6z"/>
						</g>
						<g>
							<path class="st3" d="M16.7,34.1c-0.3-2.5-0.5-5.1-0.6-7.6c1.7-2.9,3.7-5.6,5.9-8.1c2.8-0.9,5.5-1.5,8.4-2
								c0.7,2.4,1.5,4.7,2.3,7.1c-3,3.2-5.9,6.5-8.4,10.1C21.7,33.5,19.2,33.7,16.7,34.1z"/>
							<path class="st2" d="M16.2,34.7l-0.1-0.6c-0.3-2.4-0.5-4.9-0.6-7.7l0-0.2l0.1-0.1c1.7-2.8,3.6-5.5,6-8.2l0.1-0.1l0.1,0
								c2.5-0.8,5.3-1.5,8.5-2l0.5-0.1l0.1,0.5c0.7,2.2,1.4,4.5,2.3,7.1l0.1,0.3l-0.2,0.2c-2.7,2.8-5.7,6.2-8.3,10L24.6,34l-0.3,0
								c-3,0.1-5.4,0.3-7.6,0.6L16.2,34.7z M16.7,26.6c0.1,2.5,0.3,4.7,0.5,6.9c2-0.3,4.2-0.4,6.9-0.5c2.5-3.7,5.4-6.9,8-9.7
								c-0.8-2.3-1.4-4.3-2.1-6.3c-2.9,0.5-5.4,1.1-7.7,1.9C20.1,21.3,18.2,23.9,16.7,26.6z"/>
						</g>
						<g>
							<path class="st3" d="M51.1,36.2c-1.7-4-3.5-7.9-5.4-11.8c2.4-2.2,4.9-4.3,7.5-6.3c3.8,0.7,7.7,1.3,11.4,2.4
								c2.2,3.1,4,6.4,5.7,9.9c-1.8,2.9-3.7,5.8-5.6,8.6C60.2,37.9,55.7,37,51.1,36.2z"/>
							<path class="st2" d="M64.9,39.7l-0.4-0.1c-4.1-1-8.5-1.9-13.5-2.8l-0.3-0.1l-0.1-0.3c-1.5-3.6-3.2-7.3-5.4-11.8L45,24.2
								l0.3-0.3c2.5-2.2,5-4.3,7.6-6.3l0.2-0.1l0.2,0c0.4,0.1,0.8,0.1,1.2,0.2C58,18.3,61.5,19,64.8,20l0.2,0.1l0.1,0.2
								c2,2.9,3.9,6.1,5.7,9.9l0.1,0.3l-0.2,0.3c-2,3.3-3.9,6.1-5.6,8.7L64.9,39.7z M51.5,35.7c4.8,0.8,9,1.7,12.9,2.7
								c1.7-2.4,3.4-5,5.2-8c-1.7-3.6-3.5-6.7-5.4-9.4c-3.2-1-6.6-1.6-9.9-2.1c-0.3-0.1-0.7-0.1-1-0.2c-2.3,1.8-4.7,3.7-7,5.8
								C48.4,28.7,50.1,32.3,51.5,35.7z"/>
						</g>
						<g>
							<path class="st3" d="M22,18.3c0-1.4,0-2.7,0-4.1c1.9-1.8,4.2-3.4,6.6-4.4c2.5-0.2,5.1-0.4,7.6-0.4c0.9,0.6,1.3,1.4,1.9,2.2
								c-2.9,1.1-5.5,2.7-7.8,4.7C27.5,16.8,24.8,17.4,22,18.3z"/>
							<path class="st2" d="M21.5,19.1l0-0.8c0-1.4,0-2.8,0-4.1l0-0.2l0.2-0.2c2.1-2,4.4-3.5,6.8-4.5l0.1,0l0.1,0
								c2.5-0.2,5-0.4,7.7-0.4l0.2,0l0.1,0.1c0.8,0.5,1.3,1.2,1.7,1.8c0.1,0.2,0.2,0.3,0.3,0.5l0.4,0.6l-0.7,0.3
								c-2.7,1-5.2,2.6-7.6,4.6l-0.1,0.1l-0.2,0c-3.1,0.5-5.8,1.2-8.3,2L21.5,19.1z M22.6,14.4c0,1,0,2.1,0,3.1
								c2.3-0.7,4.8-1.3,7.6-1.8c2.3-1.9,4.7-3.4,7.2-4.5c-0.3-0.5-0.7-1-1.2-1.4c-2.5,0.1-4.9,0.2-7.3,0.4
								C26.6,11.3,24.5,12.6,22.6,14.4z"/>
						</g>
						<g>
							<path class="st3" d="M53.2,18.1c-1.5-1.8-3.1-3.6-4.9-5.2c1.6-0.6,3.3-1.1,5-1.2c2.8,0.5,5.7,0.9,8.5,1.4
								c2.3,0.8,4.4,2.1,6.1,3.8c-1.1,1.2-2.2,2.4-3.3,3.7C60.9,19.4,57.1,18.8,53.2,18.1z"/>
							<path class="st2" d="M64.8,21.2l-0.3-0.1c-3.3-1-6.8-1.6-10.1-2.2c-0.4-0.1-0.8-0.1-1.2-0.2l-0.2,0l-0.1-0.2
								c-1.7-2.1-3.3-3.7-4.9-5.2l-0.7-0.6l0.9-0.3c2-0.7,3.6-1.1,5.2-1.2l0.1,0l0.1,0c2.9,0.5,5.8,0.9,8.5,1.4l0.1,0
								c2.3,0.8,4.5,2.1,6.3,3.9l0.4,0.4l-0.4,0.4c-1.1,1.1-2.1,2.3-3.3,3.6L64.8,21.2z M53.5,17.6c0.3,0.1,0.7,0.1,1,0.2
								c3.3,0.6,6.7,1.1,9.9,2.1c1-1.1,1.8-2.1,2.7-3c-1.6-1.5-3.5-2.6-5.4-3.3c-2.7-0.5-5.6-0.9-8.4-1.4c-1.2,0.1-2.5,0.4-4,0.9
								C50.7,14.4,52.1,15.8,53.5,17.6z"/>
						</g>
						<g>
							<path class="st3" d="M79.2,44.7c-0.2-3.5-0.6-6.9-1.3-10.3c0.6-1.8,1.1-3.6,1.5-5.4c1.1,1.2,2.1,2.6,2.5,4.2
								c0,2.7-0.2,5.3-0.7,8c-0.1,1.8-0.3,3.6-0.6,5.4C80.5,45.6,79.7,45.1,79.2,44.7z"/>
							<path class="st2" d="M80.5,50.7l-0.5-4c-0.1-0.7-0.6-1.1-1-1.5c-0.1-0.1-0.2-0.1-0.2-0.2L78.6,45l0-0.2
								c-0.2-3.6-0.6-6.9-1.3-10.2l0-0.1l0-0.1c0.6-1.8,1.1-3.5,1.5-5.3l0.3-1l0.7,0.7c1.4,1.5,2.3,3,2.7,4.5l0,0.1l0,0.1
								c0,2.7-0.2,5.4-0.7,8.1c-0.1,1.8-0.3,3.6-0.6,5.4L80.5,50.7z M79.7,44.4C79.7,44.4,79.7,44.4,79.7,44.4
								c0.2,0.2,0.4,0.3,0.6,0.5c0.2-1.2,0.3-2.4,0.3-3.7l0-0.1c0.5-2.6,0.7-5.2,0.7-7.8c-0.3-1-0.8-2.1-1.7-3.1
								c-0.4,1.4-0.8,2.8-1.2,4.2C79.1,37.6,79.5,40.9,79.7,44.4z"/>
						</g>
						<g>
							<path class="st3" d="M79.4,29c-1.1-2.9-2.4-5.6-4.1-8.3c0.3-0.9,0.7-1.7,1-2.5c1.8,1,3.6,2.1,5.2,3.3c0.9,2.4,1.3,5,1.3,7.6
								c-0.4,1.4-0.6,2.7-0.9,4.1C81.5,31.6,80.5,30.3,79.4,29z"/>
							<path class="st2" d="M82,36l-0.7-2.6c-0.3-1.3-1.1-2.6-2.4-4l-0.1-0.1l0-0.1c-1.1-3-2.5-5.7-4.1-8.2l-0.2-0.2l0.1-0.3
								c0.1-0.3,0.2-0.6,0.3-0.9c0.2-0.6,0.5-1.1,0.7-1.7l0.2-0.6l0.5,0.3c1.9,1.1,3.7,2.1,5.3,3.3l0.1,0.1l0.1,0.2
								c0.9,2.4,1.3,5,1.3,7.8l0,0.1l0,0.1c-0.3,1.3-0.6,2.6-0.8,4.1L82,36z M79.9,28.7c0.8,0.9,1.4,1.7,1.9,2.5
								c0.2-0.8,0.3-1.5,0.5-2.2c0-2.6-0.4-5.1-1.2-7.2c-1.4-1-2.9-1.9-4.5-2.8c-0.2,0.4-0.3,0.7-0.4,1.1c-0.1,0.2-0.2,0.4-0.2,0.6
								C77.4,23.2,78.8,25.8,79.9,28.7z"/>
						</g>
						<g>
							<path class="st3" d="M65.7,86.5c-0.1-0.9-0.1-1.8-0.2-2.7c2.4-2,4.5-4.2,6.4-6.6c1.4-0.8,2.8-1.8,3.7-3.3
								c-0.2,1.4-0.4,2.8-0.4,4.2c-0.8,2.5-1.9,4.9-3.5,6.9C69.7,85.6,67.7,86.1,65.7,86.5z"/>
							<path class="st2" d="M65.2,87.1l-0.1-0.6c-0.1-0.6-0.1-1.2-0.1-1.8c0-0.3,0-0.6-0.1-0.9l0-0.3l0.2-0.2c2.3-1.9,4.4-4,6.4-6.5
								l0.1-0.1l0.1-0.1c1.7-0.9,2.8-1.9,3.5-3.1l1.4-2.3l-0.4,2.7c-0.2,1.5-0.4,2.8-0.4,4.1l0,0.1l0,0.1c-0.8,2.7-2.1,5.1-3.6,7.1
								L72,85.4l-0.2,0.1C70,86.1,68,86.6,65.8,87L65.2,87.1z M66.1,84c0,0.2,0,0.4,0,0.6c0,0.4,0.1,0.8,0.1,1.2
								c1.8-0.4,3.5-0.8,5.2-1.3c1.4-1.8,2.5-4,3.3-6.5c0-0.7,0.1-1.5,0.2-2.2c-0.7,0.6-1.5,1.3-2.5,1.8C70.4,80,68.3,82.1,66.1,84z
								"/>
						</g>
						<g>
							<path class="st3" d="M71.9,77.1c0.1-1.9,0.2-3.7,0.2-5.6c1.8-3,3.2-6.1,4.4-9.4c0.7-0.3,1.6-0.5,2-1.5
								c-0.3,1.8-0.6,3.6-1.1,5.3c-0.3,2.7-0.9,5.3-1.8,7.8C74.8,75.3,73.4,76.3,71.9,77.1z"/>
							<path class="st2" d="M71.3,78.1l0.1-1c0.1-1.8,0.2-3.7,0.2-5.5l0-0.1l0.1-0.1c1.7-2.9,3.1-5.9,4.3-9.3l0.1-0.2l0.2-0.1
								c0.1,0,0.2-0.1,0.3-0.1c0.6-0.2,1.2-0.4,1.4-1.1l1.6-3.6L79,60.7c-0.3,1.8-0.6,3.6-1.1,5.3c-0.4,2.7-0.9,5.3-1.8,7.9l0,0.1
								l0,0.1c-0.8,1.3-2.1,2.4-3.9,3.5L71.3,78.1z M72.7,71.7c0,1.5,0,2.9-0.1,4.4c1.2-0.8,2-1.6,2.6-2.5c0.8-2.5,1.4-5,1.7-7.7
								l0-0.1c0.3-1.2,0.6-2.4,0.8-3.6c-0.2,0.1-0.5,0.2-0.7,0.3c0,0,0,0,0,0C75.7,65.8,74.3,68.8,72.7,71.7z"/>
						</g>
						<g>
							<path class="st3" d="M43.7,79.6c-1.9-2.7-3.6-5.4-5.3-8.2c3-3.1,5.9-6.3,8.8-9.7c4.6,0.6,9.2,1.1,13.8,1.4
								c1,3.3,1.9,6.6,2.8,9.9c-2.6,2.8-5.3,5.4-8.4,7.7C51.4,80.8,47.6,80.2,43.7,79.6z"/>
							<path class="st2" d="M55.5,81.3l-0.2,0c-3.5,0-7-0.5-10.5-1c-0.4-0.1-0.8-0.1-1.2-0.2l-0.2,0L43.3,80
								c-1.8-2.6-3.6-5.4-5.3-8.3l-0.2-0.4L38,71c3.5-3.6,6.2-6.7,8.7-9.6l0.2-0.2l0.3,0c5,0.7,9.5,1.1,13.8,1.4l0.4,0l0.1,0.4
								c0.9,3,1.8,6.2,2.8,10l0.1,0.3l-0.2,0.2c-2.9,3.1-5.7,5.6-8.5,7.7L55.5,81.3z M44,79.1c0.3,0,0.7,0.1,1,0.1
								c3.3,0.5,6.7,0.9,10.1,1c2.6-2,5.2-4.4,8-7.3c-0.9-3.4-1.7-6.5-2.6-9.2c-4.1-0.3-8.4-0.7-13.2-1.3c-2.4,2.8-5,5.7-8.3,9.1
								C40.7,74.1,42.3,76.7,44,79.1z"/>
						</g>
						<g>
							<path class="st3" d="M41.9,85.8c-1.6-0.6-3.1-1.6-4.4-2.7c2.2-1,4.2-2.2,6.3-3.5c3.9,0.5,7.7,1.1,11.6,1.1
								c0.7,1.5,1.3,3,2,4.5c-2.1,1.1-4.5,1.7-6.9,1.8C47.6,86.6,44.7,86.2,41.9,85.8z"/>
							<path class="st2" d="M50.4,87.6L50.4,87.6c-2.8-0.4-5.7-0.8-8.6-1.2l-0.1,0l-0.1,0c-1.4-0.6-2.9-1.4-4.6-2.7L36.4,83l0.8-0.4
								c2-0.9,3.9-2,6.2-3.5l0.2-0.1l0.2,0c0.4,0.1,0.8,0.1,1.3,0.2c3.4,0.5,6.9,0.9,10.3,1l0.4,0l0.1,0.3c0.7,1.7,1.4,3.1,2,4.5
								l0.2,0.5l-0.5,0.2C55.4,86.9,52.9,87.6,50.4,87.6L50.4,87.6z M42,85.3c2.9,0.4,5.7,0.8,8.5,1.2c2.1,0,4.2-0.5,6.2-1.5
								c-0.5-1.2-1.1-2.3-1.7-3.7c-3.4,0-6.8-0.5-10.1-1c-0.3,0-0.7-0.1-1-0.1c-1.9,1.2-3.6,2.2-5.3,3C39.8,84.2,40.9,84.8,42,85.3z
								"/>
						</g>
						<g>
							<path class="st3" d="M17.8,80.1c-2.1-1.7-3.7-3.8-5-6.2c0.4-1.3,0.8-2.6,1.2-3.9c2.4,1.7,4.8,3.1,7.4,4.5
								c1.6,2.6,3.6,4.9,6,6.9c-0.7,0.5-1.4,1.2-2.4,1.5C22.5,82,20.2,81.1,17.8,80.1z"/>
							<path class="st2" d="M25,83.4l-0.2-0.1c-2.5-0.9-4.9-1.7-7.2-2.7l-0.1,0l-0.1-0.1c-2-1.6-3.7-3.8-5.2-6.3L12.2,74l0.1-0.2
								c0.4-1.3,0.8-2.6,1.2-3.9l0.2-0.7l0.6,0.4c2.1,1.5,4.5,3,7.3,4.4l0.1,0.1l0.1,0.1c1.7,2.7,3.6,4.9,5.9,6.7l0.6,0.5l-0.6,0.4
								c-0.2,0.1-0.3,0.2-0.5,0.3c-0.6,0.5-1.3,1-2.2,1.2L25,83.4z M18.1,79.6c2.2,0.9,4.5,1.8,6.9,2.6c0.6-0.2,1-0.5,1.5-0.9
								c-2.1-1.8-3.9-3.9-5.5-6.4c-2.5-1.3-4.7-2.6-6.7-4c-0.3,1-0.6,2-0.9,3C14.7,76.2,16.3,78.1,18.1,79.6z"/>
						</g>
						<g>
							<path class="st3" d="M63.7,73.1c-0.8-3.3-1.7-6.7-2.8-9.9c2.7-3.6,5.3-7.3,7.7-11.2c2.4,0.4,4.8,0.7,7.2,1.1
								c0.3,3,0.5,6,0.6,9c-1.2,3.3-2.6,6.4-4.4,9.4C69.4,72.4,66.6,72.8,63.7,73.1z"/>
							<path class="st2" d="M63.3,73.7l-0.1-0.5c-0.9-3.7-1.8-7-2.7-9.9L60.4,63l0.2-0.2c2.8-3.7,5.3-7.4,7.6-11.1l0.2-0.3l8,1.2
								l0,0.4c0.3,3,0.5,6.1,0.6,9.1l0,0.1l0,0.1c-1.3,3.4-2.7,6.5-4.4,9.5L72.5,72l-0.2,0.1c-2.8,0.9-5.7,1.3-8.5,1.6L63.3,73.7z
								 M61.6,63.3c0.9,2.8,1.7,5.8,2.6,9.2c2.5-0.3,5.1-0.6,7.6-1.4c1.6-2.8,3-5.8,4.2-9c-0.1-2.8-0.3-5.6-0.6-8.5l-6.4-1
								C66.7,56.2,64.3,59.7,61.6,63.3z"/>
						</g>
						<g>
							<path class="st3" d="M67.9,16.9c-1.7-1.7-3.8-3-6.1-3.8c1-0.2,1.3-0.1,1.7,0.3c2.3,0.4,4.6,0.8,7,1.3c2.3,0.8,4,1.9,5.7,3.6
								c-0.3,0.8-0.7,1.7-1,2.5C72.9,19.3,70.5,18,67.9,16.9z"/>
							<path class="st2" d="M75.5,21.6l-0.6-0.4c-2.2-1.4-4.6-2.6-7.2-3.9l-0.1,0l-0.1-0.1c-1.7-1.7-3.7-2.9-5.9-3.7L59.8,13
								l1.9-0.4c0.4-0.1,0.7-0.1,0.9-0.1c0.5,0,0.9,0.2,1.2,0.5c2.3,0.4,4.6,0.8,6.8,1.2l0.1,0c2.2,0.8,4,1.9,5.9,3.7l0.3,0.3
								l-0.1,0.4c-0.2,0.6-0.5,1.1-0.7,1.7c-0.1,0.3-0.2,0.6-0.3,0.9L75.5,21.6z M68.3,16.4c2.4,1.1,4.6,2.3,6.7,3.6
								c0-0.1,0.1-0.2,0.1-0.2c0.2-0.4,0.4-0.9,0.5-1.3c-1.7-1.5-3.3-2.5-5.2-3.2c-1.5-0.3-3.1-0.6-4.7-0.9
								C66.6,15,67.5,15.6,68.3,16.4z"/>
						</g>
						<g>
							<path class="st3" d="M52.2,87.2c-0.5,0.3-0.8,0.3-1.7-0.2c2.4,0,4.8-0.7,6.9-1.8c2.7-0.4,5.4-0.8,8.1-1.5
								c0.1,0.9,0.1,1.8,0.2,2.7c-2.2,1-4.1,1.6-6.5,1.7C56.8,87.8,54.5,87.5,52.2,87.2z"/>
							<path class="st2" d="M59.2,88.7L59.2,88.7c-2.3-0.3-4.6-0.6-6.9-0.9c-0.2,0.1-0.5,0.2-0.7,0.2c-0.4,0-0.9-0.2-1.4-0.5l-1.7-1
								l2,0c2.3,0,4.6-0.6,6.7-1.7l0.1,0l0.1,0c2.9-0.4,5.5-0.9,8.1-1.5L66,83l0,0.7c0,0.3,0,0.6,0.1,0.9c0,0.6,0.1,1.2,0.1,1.8
								l0,0.4L65.9,87C63.6,88.1,61.5,88.6,59.2,88.7L59.2,88.7z M54.5,87c1.6,0.2,3.2,0.4,4.7,0.6c2-0.1,3.8-0.5,5.9-1.4
								c0-0.5-0.1-1-0.1-1.4c0-0.1,0-0.2,0-0.3c-2.3,0.6-4.8,1-7.4,1.4C56.6,86.3,55.6,86.7,54.5,87z"/>
						</g>
						<g>
							<path class="st3" d="M10.1,80.2c-1.5-1.9-2.3-4.2-2.7-6.5C8,72.3,8.5,71.1,9,69.7c1.1,1.6,2.3,2.9,3.8,4.2
								c1.3,2.3,3,4.5,5,6.2c-0.4,0.6-0.5,0.8-0.9,1.4C14.6,81,12.3,80.6,10.1,80.2z"/>
							<path class="st2" d="M17.1,82.1L16.8,82c-2.3-0.4-4.6-0.9-6.8-1.3l-0.2,0l-0.1-0.2c-1.4-1.8-2.4-4.1-2.8-6.8l0-0.2l0.1-0.2
								c0.6-1.3,1.1-2.5,1.6-3.9l0.4-1.1l0.6,0.9c1,1.4,2.1,2.7,3.7,4.1l0.1,0.1l0,0.1c1.4,2.4,3,4.5,4.9,6l0.4,0.3l-0.3,0.4
								c-0.4,0.6-0.5,0.9-0.9,1.4L17.1,82.1z M10.4,79.6c2.1,0.4,4.1,0.8,6.2,1.2c0.2-0.2,0.3-0.4,0.4-0.7c-1.8-1.6-3.4-3.6-4.7-5.9
								c-1.3-1.2-2.3-2.2-3.2-3.4c-0.3,1-0.7,1.9-1.2,2.8C8.4,76,9.2,78,10.4,79.6z"/>
						</g>
						<g>
							<path class="st3" d="M68.6,52c-1.1-4.4-2.4-8.7-3.9-13c2-2.8,3.8-5.7,5.6-8.6c2.6,1.1,5.2,2.4,7.5,4
								c0.8,3.4,1.2,6.8,1.3,10.3c-1,2.8-2.2,5.6-3.3,8.4C73.4,52.7,71,52.4,68.6,52z"/>
							<path class="st2" d="M76.2,53.7l-8-1.2l-0.1-0.4c-1-4.3-2.3-8.5-3.9-12.9l-0.1-0.3l0.2-0.2c1.8-2.5,3.6-5.4,5.6-8.6l0.3-0.4
								l0.4,0.2c2.5,1.1,5.2,2.3,7.6,4.1l0.2,0.1l0,0.2c0.7,3.3,1.2,6.7,1.3,10.4l0,0.1l0,0.1c-1,2.8-2.2,5.6-3.3,8.4L76.2,53.7z
								 M69.1,51.5l6.4,1c1.1-2.6,2.2-5.3,3.1-7.9c-0.2-3.5-0.6-6.7-1.3-9.9c-2.1-1.5-4.5-2.6-6.8-3.6c-1.9,3-3.6,5.6-5.2,8
								C66.8,43.3,68.1,47.4,69.1,51.5z"/>
						</g>
						<g>
							<path class="st3" d="M27.7,45.7c-1.2-4-2.4-8.1-3.4-12.2c2.5-3.6,5.4-6.9,8.4-10.1c4.4-0.1,8.7,0.4,13,1
								c1.9,3.9,3.8,7.8,5.4,11.8c-3.2,3.9-6.3,7.7-9.4,11.6C37,47.1,32.4,46.4,27.7,45.7z"/>
							<path class="st2" d="M41.9,48.4l-14.6-2.3l-0.1-0.3c-1.4-4.4-2.5-8.4-3.4-12.2l-0.1-0.2l0.1-0.2c2.6-3.9,5.7-7.3,8.4-10.2
								l0.2-0.2l0.2,0c4.5-0.1,8.9,0.4,13.1,1l0.3,0l0.1,0.3c2.2,4.5,4,8.3,5.5,11.9l0.1,0.3l-0.2,0.3c-3.1,3.7-6.3,7.6-9.4,11.6
								L41.9,48.4z M28.2,45.2l13.3,2.1c3-3.8,6.1-7.5,9-11.1c-1.4-3.4-3.1-7-5.2-11.2c-4-0.5-8.2-1-12.4-0.9c-2.6,2.7-5.5,6-8,9.7
								C25.8,37.2,26.9,41,28.2,45.2z"/>
						</g>
						<g>
							<path class="st3" d="M38.2,11.6c-0.5-0.7-1-1.6-1.9-2.2c2-0.2,4,0,5.9,0.7c2.4,0.4,4.7,0.7,7.1,1.1c1.4-0.2,2.6,0.1,4,0.5
								c-1.7,0.1-3.4,0.6-5,1.2C44.9,12.4,41.6,11.9,38.2,11.6z"/>
							<path class="st2" d="M48.4,13.4l-0.2,0c-3.3-0.5-6.7-1-10-1.3l-0.2,0l-0.1-0.2c-0.1-0.2-0.2-0.3-0.3-0.5
								c-0.4-0.6-0.8-1.1-1.4-1.5L34.7,9l1.5-0.2c2-0.2,4.1,0,6.1,0.7c2.3,0.4,4.7,0.7,7,1.1c0.3,0,0.6-0.1,0.9-0.1
								c1.1,0,2.1,0.3,3.2,0.6l3.1,0.9l-3.1,0.2c-1.4,0.1-3,0.5-4.9,1.2L48.4,13.4z M38.5,11c3.3,0.3,6.6,0.8,9.7,1.2
								c0.7-0.3,1.4-0.5,2-0.6c-0.3,0-0.6,0-0.8,0.1l-0.1,0l-0.1,0c-2.4-0.4-4.7-0.7-7.1-1.1l0,0l0,0c-1.5-0.5-3-0.7-4.4-0.7
								c0.2,0.3,0.5,0.6,0.7,0.9C38.4,10.9,38.4,11,38.5,11z"/>
						</g>
						<g>
							<path class="st3" d="M25.7,68.4c-1.9-4-3.7-7.9-4.9-12.2c2.2-3.6,4.5-7.1,6.9-10.6c4.6,0.7,9.3,1.4,13.9,2.2
								c1.8,4.7,3.6,9.3,5.5,13.9c-2.8,3.3-5.8,6.5-8.8,9.7C34.1,70.6,29.9,69.8,25.7,68.4z"/>
							<path class="st2" d="M38.6,72L38.3,72c-4.1-0.8-8.5-1.6-12.7-3l-0.2-0.1l-0.1-0.2c-1.7-3.5-3.6-7.8-5-12.2l-0.1-0.2l0.1-0.2
								c2.1-3.4,4.3-6.8,6.9-10.6l0.2-0.3l14.6,2.3l0.1,0.3c1.8,4.8,3.7,9.4,5.5,13.9l0.1,0.3l-0.2,0.3c-2.5,2.9-5.3,6-8.8,9.7
								L38.6,72z M26.1,68c4,1.3,8.1,2.1,12.1,2.9c3.3-3.4,5.9-6.4,8.3-9.2c-1.7-4.3-3.5-8.8-5.3-13.3L28,46.3
								c-2.5,3.6-4.6,6.9-6.6,10.1C22.7,60.5,24.5,64.6,26.1,68z"/>
						</g>
						<g>
							<path class="st3" d="M30.8,84c-2,0-4-0.3-5.9-1.2c1-0.3,1.7-1,2.4-1.5c3.3,0.7,6.7,1.3,10,1.8c1.4,1.1,2.8,2,4.4,2.7
								c-1.4,0-2.7-0.1-3.9-0.7C35.6,84.7,33.2,84.4,30.8,84z"/>
							<path class="st2" d="M45,86.5l-3.2-0.1c-1.4,0-2.7-0.1-4-0.7c-2.3-0.4-4.7-0.7-7-1.1c-2.2,0-4.2-0.4-6-1.2l-1.4-0.6l1.5-0.4
								c0.7-0.2,1.2-0.6,1.8-1c0.2-0.1,0.3-0.3,0.5-0.4l0.2-0.1l0.2,0.1c3.3,0.7,6.7,1.3,9.9,1.8l0.2,0l0.1,0.1c1.6,1.2,3,2,4.3,2.6
								L45,86.5z M30.9,83.4L30.9,83.4c2.4,0.4,4.8,0.7,7.2,1.1l0.1,0l0.1,0c0.3,0.1,0.5,0.2,0.8,0.3c-0.6-0.4-1.1-0.8-1.8-1.2
								c-3.2-0.5-6.5-1.1-9.7-1.8c-0.1,0.1-0.2,0.1-0.3,0.2c-0.3,0.2-0.6,0.4-0.9,0.7C27.8,83.2,29.3,83.4,30.9,83.4L30.9,83.4z"/>
						</g>
						<g>
							<path class="st3" d="M11.3,43.1C11.6,41,12,39,12.5,37c0.2-2.6,0.6-5.2,1-7.7c0.4-1.3,1.4-2.2,2.6-2.8
								c0.1,2.6,0.3,5.1,0.6,7.6c-1.3,3.1-2.6,6.2-3.7,9.3C12.3,43.3,11.8,43.2,11.3,43.1z"/>
							<path class="st2" d="M13.3,44l-2.7-0.4l0.1-0.6c0.4-2.3,0.7-4.3,1.2-6.2c0.2-2.6,0.6-5.1,1-7.7l0-0.1
								c0.5-1.6,1.9-2.6,2.8-3.1l0.8-0.5l0,0.9c0.1,2.8,0.3,5.3,0.6,7.6l0,0.1l-0.1,0.1c-1.3,3-2.5,6.1-3.7,9.3L13.3,44z M11.9,42.7
								l0.7,0.1c1.1-3,2.3-6,3.5-8.8c-0.2-2-0.4-4.2-0.5-6.5c-0.8,0.6-1.3,1.2-1.5,1.9c-0.5,2.6-0.8,5.1-1,7.6l0,0.1
								C12.6,38.8,12.2,40.6,11.9,42.7z"/>
						</g>
						<g>
							<path class="st3" d="M17.1,17.1c0-1.4-0.1-2.8-0.3-4.2c1.1-2.1,2.6-4.1,4.5-5.4c2.3,0.3,4.6,0.5,6.9,0.8
								c0.2,0.6,0.3,0.9,0.5,1.6c-2.5,1-4.7,2.5-6.6,4.4C20.2,15,18.6,15.9,17.1,17.1z"/>
							<path class="st2" d="M16.6,18.2l0-1.1c0-1.4-0.1-2.7-0.3-4.1l0-0.2l0.1-0.2c1.2-2.4,2.8-4.3,4.7-5.6l0.2-0.1l0.2,0
								c2.2,0.3,4.6,0.5,6.9,0.8l0.3,0l0.1,0.3C28.9,8.7,29,9,29.2,9.7l0.1,0.5l-0.4,0.2c-2.3,0.9-4.4,2.3-6.5,4.3l-0.1,0.1l-0.1,0
								c-1.9,0.9-3.4,1.7-4.8,2.8L16.6,18.2z M17.3,13c0.2,1,0.2,2,0.3,3c1.2-0.8,2.5-1.6,4-2.3c2-1.8,4.1-3.3,6.3-4.2
								c-0.1-0.3-0.1-0.5-0.2-0.8c-2.1-0.3-4.3-0.5-6.3-0.7C19.8,9.2,18.4,10.9,17.3,13z"/>
						</g>
						<g>
							<path class="st3" d="M9.2,57c0.3-2.6,0.8-5.1,1.4-7.7c0.1-2.1,0.4-4.2,0.7-6.2c0.5,0.1,1.1,0.2,1.7,0.3
								c0.1,3.3,0.4,6.7,0.7,10c-1,2.3-2,4.7-2.9,7.1C9.9,59.5,9.2,58.4,9.2,57z"/>
							<path class="st2" d="M11,61.5l-0.6-0.7C9.7,60,8.7,58.7,8.7,57l0,0l0,0c0.3-2.6,0.8-5.1,1.4-7.7c0.1-1.9,0.3-3.9,0.7-6.2
								l0.1-0.6l2.7,0.4l0,0.5c0.1,3.4,0.4,6.7,0.7,9.9l0,0.1l-0.1,0.1c-1,2.2-1.9,4.5-2.8,7.1L11,61.5z M9.8,57
								c0,0.8,0.3,1.5,0.9,2.3c0.8-2.2,1.6-4.2,2.5-6.1c-0.3-3.1-0.6-6.2-0.7-9.4l-0.7-0.1c-0.3,2.1-0.5,3.9-0.6,5.6l0,0.1
								C10.5,52,10.1,54.5,9.8,57z"/>
						</g>
					</g>
				</g>
			</g>
		</g>
		<ellipse transform="matrix(0.9487 0.3162 -0.3162 0.9487 14.0499 -6.8001)" class="st4" cx="28" cy="39.9" rx="6.4" ry="12.8"/>
		<ellipse transform="matrix(0.9487 0.3162 -0.3162 0.9487 9.686 -10.7473)" class="st4" cx="38" cy="24.5" rx="3.6" ry="3.6"/>
		<g>
			<path class="st3" d="M65,20.6c0.9,0.9,1.7,1.9,2.4,2.9c2.7,3.8,4.9,7.5,6.1,11.9c1.1,4.8,0.6,9.4-0.5,14.2
				c-1.3,5.3-3.8,9.9-8.4,13.2c-13.1,9-29.3,8.7-43.2,3.4c4.8,7.6,12.8,13.2,22.4,14.6c17.7,2.7,34.3-9.4,37.1-27.1
				C82.9,40.1,76.2,27.1,65,20.6z"/>
		</g>
	</g>
</g>
</svg>
