<?xml version="1.0" encoding="utf-8"?>
<!-- Generator: Adobe Illustrator 19.0.0, SVG Export Plug-In . SVG Version: 6.00 Build 0)  -->
<svg version="1.1" id="Layer_1" xmlns="http://www.w3.org/2000/svg" xmlns:xlink="http://www.w3.org/1999/xlink" x="0px" y="0px"
	 viewBox="0 0 97.5 97.5" style="enable-background:new 0 0 97.5 97.5;" xml:space="preserve">
<style type="text/css">
	.st0{fill:#55D6D2;}
	.st1{fill:#4A2627;}
	.st2{fill:#FAFBFD;}
	.st3{fill:#F23E1D;}
	.st4{fill:#FDB813;}
	.st5{fill:#F26522;}
	.st6{opacity:0.2;fill:#E6E6E6;}
	.st7{opacity:0.2;fill:#64616C;}
</style>
<g>
	<circle class="st0" cx="48.7" cy="48.7" r="48.7"/>
	<g>
		<g>
			<g>
				<path class="st1" d="M86.9,57.4c-3.9,2-23.1,9.1-38.4,7.3c-7-0.8-14.4-1.9-14.5-1.9c-10.4,1.6-10.7,1.8-14.8,0.6
					c-0.7-0.2-3.9-3.9-3.9-3.8c0.2,0.3-4.9-3.4-5.1-1.3c-0.4,3.8-0.5,8.1,1.6,11.3c0.6,0.9,1.5,1.7,2.7,2.4c0.5-0.8,1.1-1.3,1.4-1.2
					c0.3,0.1,0.3,0.9,0,1.8c1,0.4,2.2,0.7,3.4,0.9c0.2-1.1,0.7-1.9,1.1-1.9c0.4,0.1,0.6,0.9,0.5,2c1.2,0.1,2.5,0.1,3.8-0.1
					c0-1.2,0.2-2.1,0.6-2.1c0.4,0,0.8,0.8,1,1.9c1.2-0.2,2.3-0.4,3.5-0.8c5.3-1.5,8.3-3,14.6-1.4c2.8,0.7,5.2,1.2,7.4,1.6
					c0.4-1.1,0.9-1.8,1.3-1.7c0.4,0.1,0.5,0.9,0.3,2c1.6,0.2,3.1,0.4,4.5,0.5c0.2-1.2,0.7-2,1.1-1.9c0.4,0.1,0.6,0.9,0.5,2
					c1.6,0.1,3.1,0.1,4.6,0.2c0.1-1.2,0.4-2,0.8-2c0.4,0,0.7,0.9,0.8,2c2.1,0,3.9-0.2,5.5-0.4c-0.1-1.1,0.2-2,0.5-2
					c0.4-0.1,0.8,0.7,1.1,1.8c2.6-0.5,4.6-1.1,6.2-1.8c4.3-1.8,6.8-4,7.6-6.9C87.9,61.4,86.9,57.4,86.9,57.4z"/>
				<path class="st2" d="M44.6,69.3c-6.3-1.6-9.3-0.2-14.6,1.4c-8,2.3-15.5,0.8-18-3c-2.1-3.3-1.9-7.6-1.6-11.3
					c0.2-2.1,5.3,1.6,5.1,1.3c-0.1-0.1,3.2,3.6,3.9,3.8c4,1.1,4.4,0.9,14.8-0.6c0.1,0,7.4,1.1,14.5,1.9c15.3,1.8,34.1-5,38.1-7
					c0,0,1.3,3.7,0.3,7c-0.9,2.9-3.4,5.1-7.6,6.9c-3.1,1.3-7.8,2.5-14.9,2.5C58.8,72,53.3,71.5,44.6,69.3z"/>
				<path class="st1" d="M83,51.4C82.2,51,52.9,37.3,51.1,30.5c-1.2-4.7-6.1-9.9-11.5-5.3C34.4,29.7,36,40.8,36,40.8
					s23.4,21.7,24.3,21.7C61.2,62.5,83,51.4,83,51.4z"/>
				<path class="st3" d="M86.8,56.4c-0.8-3.1-3.2-5.3-6.1-5.9c-31.4-8.5-27.5-12.1-33.2-16c-2.8-1.9-7.1-1.6-8.7-0.4
					c-3.1,2.3-7.6,2.3-9.6,2.1c-7.5-0.9-6.2-5.9-8.9-6.1c-1.8-0.1-3.6,1.4-4.6,2.9c-6.1,8.8-6,23-4.9,27c0.9,3.4,3.6,6,5.5,6.6
					c12,3.5,15.8-2.2,22.3-2.2c2.9,0,22.1,4.8,33.5,3.2C87.4,65.4,87.2,58,86.8,56.4z"/>
				<path class="st4" d="M55.4,60.2c-5-1.5-10.6-1.9-13.9-6.5c-2.7-4.2-5.2-8.1-6.7-12.5c-0.5-1.6-0.4-3.4-0.3-5.2
					c-2.1,0.4-4.2,0.4-5.4,0.2c-7.5-0.9-6.2-5.9-8.9-6.1c-1.8-0.1-3.6,1.4-4.6,2.9c-0.9,1.4-1.7,2.8-2.4,4.4
					c7.1,0.7,13.8,3.8,18.4,9.7c4.2,5.2,6.5,11.7,12.5,14.8c4,2.1,8.5,3.1,13.1,3.9c1.9,0.4,3.6,1,5,1.9c1.2,0.1,2.4,0.1,3.6,0.2
					C63.2,64.4,59.8,61.6,55.4,60.2z"/>
				<path class="st4" d="M24.6,59.2c-4.6-3.1-8.7-6.2-11.7-11c-0.9-1.4-1.4-2.8-1.6-4.2c-1.4,6.8-1.2,13.4-0.5,15.9
					c0.9,3.4,3.6,6,5.5,6.6c12,3.5,15.8-2.2,22.3-2.2c0.4,0,1,0.1,1.9,0.2c-0.5-0.4-1-0.7-1.6-0.9C33.6,62.7,29,62.1,24.6,59.2z"/>
				<path class="st4" d="M80,52.8c-2.2,4.1-2.6,8.8-1.6,13.3c8.9-2.9,8.7-8.3,8.4-9.7c-0.7-2.7-2.7-4.7-5.1-5.6
					C81,51.3,80.5,52,80,52.8z"/>
				<path class="st5" d="M52.1,50.3c6.7,2.8,17.4,5.4,21.7-1.7c-24-7.1-21.1-10.5-26.3-14.1c-2.8-1.9-7.1-1.6-8.7-0.4
					c-0.3,0.3-0.7,0.5-1.1,0.7c0.1,2.7,1.4,5.5,3.1,7.5C44,45.9,47.9,48.6,52.1,50.3z"/>
				<g>
					<path class="st2" d="M37.7,35.5c-0.1,0-0.2-0.1-0.2-0.2c0-0.2,0-0.3,0-0.5c0-0.1,0.1-0.2,0.2-0.2c0,0,0,0,0,0
						c0.1,0,0.2,0.1,0.2,0.2c0,0.2,0,0.3,0,0.5C37.9,35.4,37.8,35.5,37.7,35.5C37.7,35.5,37.7,35.5,37.7,35.5z"/>
					<path class="st2" d="M64.4,53.4c-0.3,0-0.6,0-1,0c-0.1,0-0.2-0.1-0.2-0.2c0-0.1,0.1-0.2,0.2-0.2c0.3,0,0.6,0,0.9,0
						c0.1,0,0.2,0.1,0.2,0.2C64.6,53.3,64.5,53.4,64.4,53.4z M65.3,53.4c-0.1,0-0.2-0.1-0.2-0.2c0-0.1,0.1-0.2,0.2-0.2
						c0.3,0,0.6,0,0.9-0.1c0.1,0,0.2,0.1,0.2,0.2c0,0.1-0.1,0.2-0.2,0.2C66,53.3,65.7,53.3,65.3,53.4C65.4,53.4,65.3,53.4,65.3,53.4
						z M62.5,53.3C62.5,53.3,62.5,53.3,62.5,53.3c-0.3,0-0.7-0.1-1-0.1c-0.1,0-0.2-0.1-0.2-0.2c0-0.1,0.1-0.2,0.2-0.2
						c0.3,0,0.6,0.1,0.9,0.1c0.1,0,0.2,0.1,0.2,0.2C62.7,53.2,62.6,53.3,62.5,53.3z M67.2,53.1c-0.1,0-0.2-0.1-0.2-0.2
						c0-0.1,0-0.2,0.2-0.2c0.3-0.1,0.6-0.1,0.9-0.2c0.1,0,0.2,0,0.2,0.1c0,0.1,0,0.2-0.1,0.2C67.9,53,67.6,53.1,67.2,53.1
						C67.3,53.1,67.3,53.1,67.2,53.1z M60.6,53.1C60.6,53.1,60.6,53.1,60.6,53.1c-0.3-0.1-0.7-0.1-1-0.2c-0.1,0-0.2-0.1-0.2-0.2
						c0-0.1,0.1-0.2,0.2-0.2c0.3,0.1,0.6,0.1,0.9,0.2c0.1,0,0.2,0.1,0.2,0.2C60.7,53,60.7,53.1,60.6,53.1z M58.7,52.7
						C58.7,52.7,58.7,52.7,58.7,52.7c-0.3-0.1-0.7-0.2-1-0.2c-0.1,0-0.2-0.1-0.1-0.2c0-0.1,0.1-0.2,0.2-0.1c0.3,0.1,0.6,0.2,0.9,0.2
						c0.1,0,0.2,0.1,0.1,0.2C58.9,52.6,58.8,52.7,58.7,52.7z M69.1,52.6c-0.1,0-0.2,0-0.2-0.1c0-0.1,0-0.2,0.1-0.2
						c0.3-0.1,0.6-0.2,0.9-0.4c0.1,0,0.2,0,0.3,0.1c0,0.1,0,0.2-0.1,0.3C69.8,52.4,69.5,52.5,69.1,52.6
						C69.1,52.6,69.1,52.6,69.1,52.6z M56.8,52.2C56.8,52.2,56.8,52.2,56.8,52.2c-0.4-0.1-0.7-0.2-1-0.3c-0.1,0-0.2-0.1-0.1-0.2
						c0-0.1,0.1-0.2,0.2-0.1c0.3,0.1,0.6,0.2,0.9,0.3c0.1,0,0.2,0.1,0.1,0.2C57,52.1,56.9,52.2,56.8,52.2z M70.8,51.8
						c-0.1,0-0.1,0-0.2-0.1c-0.1-0.1,0-0.2,0.1-0.3c0.3-0.2,0.5-0.3,0.8-0.5c0.1-0.1,0.2,0,0.3,0c0.1,0.1,0,0.2,0,0.3
						C71.5,51.4,71.2,51.6,70.8,51.8C70.9,51.8,70.9,51.8,70.8,51.8z M55,51.6C55,51.6,55,51.6,55,51.6c-0.4-0.1-0.7-0.2-1-0.3
						c-0.1,0-0.2-0.1-0.1-0.2c0-0.1,0.1-0.2,0.2-0.1c0.3,0.1,0.6,0.2,0.9,0.3c0.1,0,0.2,0.1,0.1,0.2C55.2,51.6,55.1,51.6,55,51.6z
						 M53.2,51C53.2,51,53.2,51,53.2,51c-0.4-0.1-0.7-0.2-1-0.4c-0.1,0-0.1-0.2-0.1-0.3c0-0.1,0.2-0.1,0.3-0.1
						c0.3,0.1,0.6,0.2,0.9,0.4c0.1,0,0.1,0.1,0.1,0.2C53.4,50.9,53.3,51,53.2,51z M72.3,50.7c-0.1,0-0.1,0-0.1-0.1
						c-0.1-0.1-0.1-0.2,0-0.3c0.2-0.2,0.4-0.4,0.6-0.7c0.1-0.1,0.2-0.1,0.3,0c0.1,0.1,0.1,0.2,0,0.3c-0.2,0.3-0.4,0.5-0.7,0.7
						C72.4,50.6,72.4,50.7,72.3,50.7z M51.4,50.2C51.4,50.2,51.4,50.2,51.4,50.2c-0.4-0.1-0.7-0.3-1-0.4c-0.1,0-0.1-0.2-0.1-0.3
						c0-0.1,0.2-0.1,0.3-0.1c0.3,0.1,0.6,0.3,0.9,0.4c0.1,0,0.1,0.2,0.1,0.3C51.6,50.2,51.5,50.2,51.4,50.2z M49.7,49.4
						C49.7,49.4,49.7,49.4,49.7,49.4c-0.4-0.2-0.7-0.3-0.9-0.5c-0.1-0.1-0.1-0.2-0.1-0.3c0.1-0.1,0.2-0.1,0.3-0.1
						c0.3,0.2,0.6,0.3,0.8,0.4c0.1,0,0.1,0.2,0.1,0.3C49.9,49.4,49.8,49.4,49.7,49.4z M48,48.5C48,48.5,48,48.5,48,48.5
						c-0.4-0.2-0.6-0.4-0.9-0.5c-0.1-0.1-0.1-0.2-0.1-0.3c0.1-0.1,0.2-0.1,0.3-0.1c0.3,0.2,0.5,0.3,0.8,0.5c0.1,0.1,0.1,0.2,0.1,0.3
						C48.2,48.5,48.1,48.5,48,48.5z M46.4,47.5c0,0-0.1,0-0.1,0c-0.3-0.2-0.5-0.4-0.8-0.6c-0.1-0.1-0.1-0.2,0-0.3
						c0.1-0.1,0.2-0.1,0.3,0c0.3,0.2,0.5,0.4,0.8,0.6c0.1,0.1,0.1,0.2,0,0.3C46.6,47.4,46.5,47.5,46.4,47.5z M44.9,46.3
						c0,0-0.1,0-0.1,0c-0.3-0.2-0.5-0.4-0.7-0.6c-0.1-0.1-0.1-0.2,0-0.3c0.1-0.1,0.2-0.1,0.3,0c0.2,0.2,0.5,0.4,0.7,0.6
						c0.1,0.1,0.1,0.2,0,0.3C45,46.3,44.9,46.3,44.9,46.3z M43.4,45.1c0,0-0.1,0-0.1,0c-0.2-0.2-0.5-0.4-0.7-0.6
						c-0.1-0.1-0.1-0.2,0-0.3c0.1-0.1,0.2-0.1,0.3,0c0.2,0.2,0.5,0.4,0.7,0.6c0.1,0.1,0.1,0.2,0,0.3C43.5,45.1,43.5,45.1,43.4,45.1z
						 M42,43.8c0,0-0.1,0-0.1-0.1c-0.2-0.2-0.5-0.5-0.7-0.7c-0.1-0.1-0.1-0.2,0-0.3c0.1-0.1,0.2-0.1,0.3,0c0.2,0.2,0.4,0.5,0.7,0.7
						c0.1,0.1,0.1,0.2,0,0.3C42.1,43.8,42.1,43.8,42,43.8z M40.7,42.4c-0.1,0-0.1,0-0.1-0.1c-0.2-0.2-0.4-0.5-0.6-0.8
						c-0.1-0.1,0-0.2,0-0.3c0.1-0.1,0.2,0,0.3,0c0.2,0.3,0.4,0.5,0.6,0.7c0.1,0.1,0.1,0.2,0,0.3C40.8,42.4,40.8,42.4,40.7,42.4z
						 M39.6,40.8c-0.1,0-0.1,0-0.2-0.1c-0.2-0.3-0.3-0.6-0.5-0.8c0-0.1,0-0.2,0.1-0.3c0.1-0.1,0.2,0,0.3,0.1
						c0.1,0.3,0.3,0.6,0.5,0.8c0.1,0.1,0,0.2-0.1,0.3C39.7,40.8,39.6,40.8,39.6,40.8z M38.7,39.1c-0.1,0-0.1,0-0.2-0.1
						c-0.1-0.3-0.3-0.6-0.4-0.9c0-0.1,0-0.2,0.1-0.2c0.1,0,0.2,0,0.2,0.1c0.1,0.3,0.2,0.6,0.4,0.9C38.9,39,38.9,39.1,38.7,39.1
						C38.8,39.1,38.7,39.1,38.7,39.1z M38,37.3c-0.1,0-0.2-0.1-0.2-0.1c-0.1-0.3-0.2-0.6-0.2-0.9c0-0.1,0-0.2,0.2-0.2
						c0.1,0,0.2,0,0.2,0.2c0.1,0.3,0.1,0.6,0.2,0.9C38.3,37.2,38.2,37.3,38,37.3C38.1,37.3,38.1,37.3,38,37.3z"/>
					<path class="st2" d="M73.6,49.2c0,0-0.1,0-0.1,0c-0.1-0.1-0.1-0.2-0.1-0.3c0.1-0.1,0.2-0.3,0.3-0.4c0.1-0.1,0.2-0.1,0.3-0.1
						c0.1,0.1,0.1,0.2,0.1,0.3c-0.1,0.1-0.2,0.3-0.3,0.4C73.7,49.2,73.6,49.2,73.6,49.2z"/>
				</g>
				<g>
					<circle class="st1" cx="41.3" cy="38.3" r="1.4"/>
					<circle class="st2" cx="41.3" cy="38.3" r="1.1"/>
				</g>
				<g>
					<circle class="st1" cx="45.6" cy="42.9" r="1.4"/>
					<circle class="st2" cx="45.6" cy="42.9" r="1.1"/>
				</g>
				<g>
					<circle class="st1" cx="50.9" cy="46.7" r="1.4"/>
					<circle class="st2" cx="50.9" cy="46.7" r="1.1"/>
				</g>
				<g>
					<circle class="st1" cx="56.7" cy="49.2" r="1.4"/>
					<circle class="st2" cx="56.7" cy="49.2" r="1.1"/>
				</g>
				<g>
					<circle class="st1" cx="65.1" cy="50.6" r="1.4"/>
					<circle class="st2" cx="65.1" cy="50.6" r="1.1"/>
				</g>
			</g>
			<path class="st2" d="M73.7,46.8l-6.5,2.3l2.2-3.4l1.3-0.4c-0.2-0.1-0.5-0.3-0.7-0.4c-0.5-0.3-1-0.5-1.5-0.8
				c-0.1,0-0.1-0.1-0.2-0.1l-0.1,0.2l-9.4,3.3l2.3-3.4l4.6-1.6c-0.7-0.4-1.4-0.8-2.1-1.2l-0.9,0.3l0.4-0.6c-0.5-0.3-1.1-0.7-1.6-1
				l-1.7,2.6l-6.4,2.2l3.1-4.7l3.4-1.2c-0.6-0.4-1.2-0.8-1.8-1.2c0,0-0.1,0-0.1-0.1c-0.5-0.3-1-0.7-1.4-1l-1.3,2l-7.5,2.6l3.7-5.6
				l2.7-1c-0.5-0.4-0.9-0.8-1.3-1.2c-0.1-0.1-0.1-0.1-0.2-0.2c-0.4-0.4-0.8-0.9-1-1.3l-1.4,2.2l-9.6,3.4l0.6,1.8l7.3-2.6l-4,6
				l0.7,0.4l0.3,0.8l8-2.8l-3.1,4.7l-0.2,0.3l-0.3,0.5l0.7,0.5l0.2,0.5l0.9-0.3l6.4-2.2l-2.5,4.2l0.7,0.5l0.2,0.5L57,50l0.1,0
				l9.4-3.3l-2.4,3.7l0.9,0.9l0.5,0.3L76,48C75.3,47.6,74.5,47.2,73.7,46.8z"/>
		</g>
		<ellipse transform="matrix(0.9924 0.1228 -0.1228 0.9924 5.9856 -1.512)" class="st6" cx="15.3" cy="47.8" rx="3.8" ry="8.7"/>
	</g>
	<path class="st7" d="M87.3,59.7c0-1.3-0.3-2.5-0.5-3.3c0,0,0,0,0-0.1l0,0c0,0,0,0,0,0c-0.1-0.4-0.2-0.7-0.2-0.7c0,0,0,0,0,0
		c0-0.1-0.1-0.2-0.1-0.3s-0.1-0.2-0.2-0.3c-0.1-0.2-0.2-0.4-0.3-0.6c-0.1-0.1-0.1-0.2-0.2-0.4c-0.1-0.2-0.2-0.4-0.4-0.5
		c-0.1-0.1-0.2-0.2-0.3-0.3c-0.1-0.2-0.3-0.3-0.4-0.4c-0.1-0.1-0.2-0.2-0.3-0.3c-0.1-0.1-0.3-0.3-0.5-0.4c-0.1-0.1-0.2-0.2-0.4-0.3
		c-0.2-0.1-0.3-0.2-0.5-0.3c0,0,0,0,0,0c0,0,0,0,0,0c0,0-0.1,0-0.1-0.1c-0.1,0-0.1-0.1-0.2-0.1c-0.1-0.1-0.3-0.1-0.5-0.2
		c-1.1-0.6-3.4-1.7-6.3-3.1c-0.6-0.3-1.3-0.7-2-1c-0.4-0.2-0.8-0.4-1.1-0.6c0.8,1.3,1.3,2.8,1.3,4.4c2,28-29,13-47,17c-4,1-9,3-14,1
		c-0.8-0.6-1.5-1.1-2.3-1.7c0.3,1,0.7,1.9,1.2,2.8c0.6,0.9,1.5,1.7,2.7,2.4c0.5-0.8,1.1-1.3,1.4-1.2c0.3,0.1,0.3,0.9,0,1.8
		c1,0.4,2.2,0.7,3.4,0.9c0.2-1.1,0.7-1.9,1.1-1.9c0.4,0.1,0.6,0.9,0.5,2c1.2,0.1,2.5,0.1,3.8-0.1c0-1.2,0.2-2.1,0.6-2.1
		c0.4,0,0.8,0.8,1,1.9c1.2-0.2,2.3-0.4,3.5-0.8c5.3-1.5,8.3-3,14.6-1.4c2.8,0.7,5.2,1.2,7.4,1.6c0.4-1.1,0.9-1.8,1.3-1.7
		c0.4,0.1,0.5,0.9,0.3,2c1.6,0.2,3.1,0.4,4.5,0.5c0.2-1.2,0.7-2,1.1-1.9c0.4,0.1,0.6,0.9,0.5,2c1.6,0.1,3.1,0.1,4.6,0.2
		c0.1-1.2,0.4-2,0.8-2c0.4,0,0.7,0.9,0.8,2c2.1,0,3.9-0.2,5.5-0.4c-0.1-1.1,0.2-2,0.5-2c0.4-0.1,0.8,0.7,1.1,1.8
		c2.6-0.5,4.6-1.1,6.2-1.8c4.3-1.8,6.8-4,7.6-6.9C87.4,63,87.4,61.1,87.3,59.7z"/>
</g>
</svg>
