<?xml version="1.0" standalone="no"?>
<!DOCTYPE svg PUBLIC "-//W3C//DTD SVG 20010904//EN"
 "http://www.w3.org/TR/2001/REC-SVG-20010904/DTD/svg10.dtd">
<svg version="1.0" xmlns="http://www.w3.org/2000/svg"
 width="500.000000pt" height="500.000000pt" viewBox="0 0 500.000000 500.000000"
 preserveAspectRatio="xMidYMid meet">
<metadata>
Created by potrace 1.11, written by Peter Selinger 2001-2013
</metadata>
<g transform="translate(0.000000,500.000000) scale(0.100000,-0.100000)"
fill="#000000" stroke="none">
<path d="M2089 4973 c-19 -15 -52 -43 -75 -63 -22 -19 -53 -46 -70 -60 -78
-66 -160 -136 -170 -145 -6 -5 -30 -26 -54 -45 -24 -19 -56 -46 -71 -60 -15
-14 -49 -43 -75 -65 -43 -36 -405 -343 -529 -450 -27 -23 -86 -73 -130 -110
-105 -89 -107 -92 -48 -100 27 -4 64 -11 83 -15 19 -5 51 -11 70 -14 50 -8 82
-14 195 -36 100 -19 135 -26 190 -35 129 -22 211 -39 217 -44 4 -4 10 -22 12
-41 5 -37 34 -218 41 -260 7 -35 36 -209 41 -245 2 -16 6 -39 8 -49 2 -13 17
-25 47 -34 24 -8 46 -17 49 -19 3 -3 5 -696 5 -1541 l0 -1537 333 -3 332 -2 1
22 c0 13 0 695 0 1516 l1 1492 26 1 c36 1 202 19 222 24 3 0 37 7 75 14 84 16
148 32 234 60 l64 20 -64 -66 c-35 -36 -84 -85 -109 -109 l-45 -44 35 0 c19 0
64 5 100 10 36 5 90 11 120 14 30 4 66 8 80 11 14 2 50 7 80 9 30 3 72 8 93
11 20 3 54 7 75 10 20 3 62 8 92 11 30 2 66 6 80 9 14 2 52 7 85 11 33 3 65 9
70 12 6 3 6 1 2 -3 -7 -8 -251 -92 -730 -253 -77 -26 -132 -49 -125 -53 7 -4
60 -23 118 -42 220 -75 699 -242 720 -250 15 -7 -85 0 -125 8 -11 2 -47 7 -80
10 -33 3 -67 8 -75 10 -8 2 -42 6 -75 10 -33 3 -105 12 -160 20 -55 8 -124 17
-154 20 -30 4 -61 8 -70 10 -9 1 -47 6 -86 9 l-70 7 107 -108 c105 -107 224
-230 362 -372 39 -41 60 -68 46 -59 -324 197 -480 293 -500 307 -14 9 -50 32
-81 49 l-56 32 83 -248 c46 -136 84 -247 85 -247 0 0 2 -7 4 -15 2 -8 19 -59
37 -112 19 -53 31 -95 27 -93 -4 3 -44 62 -89 132 -212 331 -281 438 -289 446
-6 6 -49 -224 -66 -351 -1 -16 -10 -66 -18 -112 -9 -47 -18 -101 -21 -120 -3
-19 -8 -45 -10 -57 -6 -29 -20 -28 263 -20 l55 2 12 -40 c20 -67 128 -434 219
-745 47 -162 97 -329 109 -370 13 -41 47 -157 77 -257 l53 -183 338 0 c186 0
338 3 338 6 0 6 -169 534 -190 594 -5 14 -43 133 -85 265 -42 132 -82 258 -90
280 -7 22 -43 135 -80 250 -79 248 -101 314 -110 336 -4 12 12 27 67 62 77 48
168 134 214 202 64 94 131 269 150 390 3 22 8 43 9 46 8 12 19 199 19 314 0
114 -8 233 -19 300 -5 27 -27 133 -30 145 -1 3 -5 19 -10 35 -20 76 -77 199
-127 272 -33 49 -33 51 -10 81 18 23 16 29 -80 320 -54 163 -98 301 -98 305 0
4 117 164 260 354 143 190 259 348 257 350 -2 2 -51 5 -108 8 -159 6 -335 15
-424 20 -44 3 -136 7 -205 10 -69 3 -168 8 -220 11 -52 2 -142 7 -200 9 -125
5 -283 13 -400 20 -47 3 -144 7 -216 10 l-132 6 -33 -28z"/>
</g>
</svg>
